<svg xmlns="http://www.w3.org/2000/svg" viewBox="0 0 52.42 59.26"><defs><style>.cls-1{fill:#ad8d60;}</style></defs><g id="Capa_2" data-name="Capa 2"><g id="Capa_1-2" data-name="Capa 1"><path class="cls-1" d="M50.72,19.2a30.43,30.43,0,0,0-5.16-9.44,29.09,29.09,0,0,0-3.84-3.93,25.55,25.55,0,0,0-4.62-3.1,24.25,24.25,0,0,0-5.26-2h0A22.82,22.82,0,0,0,26.21,0h0a22.68,22.68,0,0,0-5.63.71h0a24.25,24.25,0,0,0-5.26,2,25.91,25.91,0,0,0-4.62,3.1A29.09,29.09,0,0,0,6.86,9.76,30.64,30.64,0,0,0,1.7,19.2a32.88,32.88,0,0,0,0,21,30.58,30.58,0,0,0,5.19,9.41,28.87,28.87,0,0,0,3.84,3.9,25.78,25.78,0,0,0,4.61,3.09,24,24,0,0,0,5.24,2,22.91,22.91,0,0,0,5.6.7h0a22.91,22.91,0,0,0,5.6-.7,24,24,0,0,0,5.24-2,25.78,25.78,0,0,0,4.61-3.09,28.29,28.29,0,0,0,3.84-3.9,30.58,30.58,0,0,0,5.19-9.41,32.88,32.88,0,0,0,0-21ZM48,39.56a32.57,32.57,0,0,1-1.75,4.71,29.58,29.58,0,0,1-2.52,4.4,26.21,26.21,0,0,1-3.33,3.9,22.23,22.23,0,0,1-4.13,3.13,20.46,20.46,0,0,1-4.83,2.07,19.21,19.21,0,0,1-10.49,0,20.53,20.53,0,0,1-4.84-2.07A22.56,22.56,0,0,1,12,52.57a25.57,25.57,0,0,1-3.32-3.9,28.73,28.73,0,0,1-2.52-4.4A31.49,31.49,0,0,1,4.4,39.56a36.15,36.15,0,0,1,0-19.75,31.7,31.7,0,0,1,1.77-4.7,28.22,28.22,0,0,1,2.53-4.39,26,26,0,0,1,3.33-3.88,22.5,22.5,0,0,1,4.12-3.11,20.26,20.26,0,0,1,4.81-2,19,19,0,0,1,10.44,0,20.26,20.26,0,0,1,4.81,2.05,22.92,22.92,0,0,1,4.13,3.11,26.51,26.51,0,0,1,3.32,3.88,28.22,28.22,0,0,1,2.53,4.39A30.62,30.62,0,0,1,48,19.81a36.25,36.25,0,0,1,1.39,9.87A36.74,36.74,0,0,1,48,39.56Z"/><circle class="cls-1" cx="38.06" cy="11.62" r="0.92"/><path class="cls-1" d="M34.61,12.5C37.16,7.75,33,5.77,32.05,5.77c1.41,2.33-.64,5.61-3.84,6.88A14.19,14.19,0,0,1,34.61,12.5Z"/><path class="cls-1" d="M42.36,22.39v-.62H40.65a7.26,7.26,0,0,1-3.56,4.39,17.18,17.18,0,0,0-.47-4.39h-.44L31.7,33.36,26.88,21.77h-5V38.09h.62v-15l6.86,16.28h.71l6.12-15.85V38.45H34.63v.62h7.73v-.62H40.81V22.39Z"/><path class="cls-1" d="M35,40.62a5.86,5.86,0,0,1,.32.86,6.3,6.3,0,0,1,.22,2,8.29,8.29,0,0,1-1.37,4.13,9.68,9.68,0,0,1-3.35,3.16,9.2,9.2,0,0,1-4.53,1.24,13.51,13.51,0,0,1-4.71-.83,12.15,12.15,0,0,1-1.33-.58,10,10,0,0,1-1.13-1,6.53,6.53,0,0,1-1-1.43,3,3,0,0,1-.38-1.63,2.67,2.67,0,0,1,.65-1.49,2.23,2.23,0,0,1,1.12-.62,1.82,1.82,0,0,1,1.25.2,2,2,0,0,1,.87,1,1.75,1.75,0,0,1,.14.64A.74.74,0,0,0,20.9,46a.72.72,0,0,0-.44.93.73.73,0,0,0,.93.45.75.75,0,0,0,.4-.36h0a2.09,2.09,0,0,0,.11-1.52,2.23,2.23,0,0,0-1-1.23A2.27,2.27,0,0,0,19.38,44a2.73,2.73,0,0,0-1.4.74h0v0a3.23,3.23,0,0,0-.52.83,2.66,2.66,0,0,0-.24,1,3.39,3.39,0,0,0,.49,1.88,6.19,6.19,0,0,0,1.19,1.46l.06,0a15.92,15.92,0,0,1-1.5-1.09,16.24,16.24,0,0,1-3.17-3.55A18.89,18.89,0,0,1,12.21,41a22.69,22.69,0,0,1-.64-2.28,23.15,23.15,0,0,1-.4-2.33,25.8,25.8,0,0,1-.12-4.73A17.79,17.79,0,0,1,14,23L13,23.1c-.85.83-3.79,5.79-2.9,13.43a21,21,0,0,0,1.26,4.8,18.12,18.12,0,0,0,5.87,7.82,16.17,16.17,0,0,0,2.07,1.33,17.08,17.08,0,0,0,2.23,1,15.16,15.16,0,0,0,4.81.89,13.21,13.21,0,0,0,4.87-.83,17.12,17.12,0,0,0,4.51-2.45,18.26,18.26,0,0,0,5.41-6.6c.3-.6.56-1.22.81-1.87Z"/><path class="cls-1" d="M39.23,15.89c-3-2.77-10-3.58-18.19.13a18.63,18.63,0,0,0-4.24,2.54h1.55l.95-.65a18.23,18.23,0,0,1,2.08-1.14,23,23,0,0,1,8.3-2.08c3.93.08,8.29,1.9,8.23,9.34C39,23.61,42.36,18.77,39.23,15.89Z"/><path class="cls-1" d="M16.08,20.88V38H13.77v.66h9.56V38H21V20.88h5.39l-.27-.66H9.84v5C10.79,20,16.08,20.88,16.08,20.88Z"/></g></g></svg>