<svg xmlns="http://www.w3.org/2000/svg" viewBox="0 0 518.79 93.18"><defs><style>.cls-1{fill:#fff;}</style></defs><g id="Capa_2" data-name="Capa 2"><g id="Capa_1-2" data-name="Capa 1"><g id="Grupo_79" data-name="Grupo 79"><g id="Grupo_78" data-name="Grupo 78"><g id="Grupo_75" data-name="Grupo 75"><path id="Trazado_90" data-name="Trazado 90" class="cls-1" d="M64.49,42.88a14.17,14.17,0,0,0-5.33-3.38,19.67,19.67,0,0,0-6.76-1.13,20,20,0,0,0-10.19,2.31,16.78,16.78,0,0,0-6.31,6.84.35.35,0,0,1-.39.17.34.34,0,0,1-.27-.31v-9H22.81V93.15H35.88V62.53c0-8.45,3.71-12.74,11-12.74a9.37,9.37,0,0,1,7.14,2.31,13.12,13.12,0,0,1,2.1,8.68V93.15H69.34V56A20.61,20.61,0,0,0,68,48.42,16.43,16.43,0,0,0,64.49,42.88Z"/><path id="Trazado_91" data-name="Trazado 91" class="cls-1" d="M100.33,34.26H91.78a.35.35,0,0,1-.34-.35h0a18.68,18.68,0,0,1,.38-4.08A6,6,0,0,1,93.23,27,5.38,5.38,0,0,1,96,25.52a18.1,18.1,0,0,1,4-.4V14c-14.41.1-21.42,6.63-21.42,20a.35.35,0,0,1-.35.34H70.86v9.68h7.37a.35.35,0,0,1,.35.35V93.13H91.44V44.28a.34.34,0,0,1,.34-.34h8.55Z"/><path id="Trazado_92" data-name="Trazado 92" class="cls-1" d="M150.56,54.41a24.28,24.28,0,0,0-5.22-8.6,23.45,23.45,0,0,0-8.21-5.48,28.86,28.86,0,0,0-10.87-2,29.48,29.48,0,0,0-11,2,23.49,23.49,0,0,0-8.29,5.53,24.21,24.21,0,0,0-5.28,8.66,33,33,0,0,0-1.83,11.23,33.39,33.39,0,0,0,1.78,11.13,24.09,24.09,0,0,0,5.16,8.66,23.55,23.55,0,0,0,8.3,5.59,31.57,31.57,0,0,0,22,.06,23.15,23.15,0,0,0,8.23-5.54A24.56,24.56,0,0,0,150.53,77a32.81,32.81,0,0,0,1.84-11.29A33.67,33.67,0,0,0,150.56,54.41ZM126.28,82.13c-8.59,0-12.94-5.51-12.94-16.38s4.35-16.27,12.94-16.27S139.22,55,139.22,65.75s-4.36,16.38-13,16.38Z"/><rect id="Rectángulo_38" data-name="Rectángulo 38" class="cls-1" y="13.51" width="13.06" height="79.62"/></g><g id="Grupo_77" data-name="Grupo 77"><g id="Grupo_76" data-name="Grupo 76"><path id="Trazado_93" data-name="Trazado 93" class="cls-1" d="M341.64,93.11a24,24,0,0,0,9.17-1.63,16.56,16.56,0,0,0,6.31-4.35.38.38,0,0,1,.38-.1.3.3,0,0,1,.23.29,38.14,38.14,0,0,0,.76,5.72H370.7V58.78a31,31,0,0,0-1.15-8.73,15.19,15.19,0,0,0-3.68-6.4,16.44,16.44,0,0,0-6.74-3.92,33.66,33.66,0,0,0-10.31-1.37,35.68,35.68,0,0,0-10.48,1.32,17.83,17.83,0,0,0-6.9,3.72,14,14,0,0,0-3.83,5.75,23.87,23.87,0,0,0-1.3,7.05h12.16a10.3,10.3,0,0,1,2.63-5.56,9.54,9.54,0,0,1,7.08-2.24,12.7,12.7,0,0,1,6.59,1.49,5.23,5.23,0,0,1,1.8,7.18,5.33,5.33,0,0,1-1.2,1.39,18.62,18.62,0,0,1-7.14,2c-3.44.49-6.65,1-9.55,1.65a23.55,23.55,0,0,0-7.45,2.79,13.28,13.28,0,0,0-4.86,5.17A19.06,19.06,0,0,0,324.61,79a13.55,13.55,0,0,0,4.08,10.2A18.27,18.27,0,0,0,341.64,93.11Zm-1.6-21a19.71,19.71,0,0,1,8.3-3.07,57.14,57.14,0,0,0,5.78-1.38A7.14,7.14,0,0,0,357.05,66a.36.36,0,0,1,.38-.08.32.32,0,0,1,.21.32l-.1,5.77a10.47,10.47,0,0,1-1,4.57,12.4,12.4,0,0,1-6.74,6.27,13.63,13.63,0,0,1-5.05.94c-4.65,0-7-2.09-7-6.21a6.69,6.69,0,0,1,2.34-5.5Z"/><path id="Trazado_94" data-name="Trazado 94" class="cls-1" d="M211.81,21.62a27.59,27.59,0,0,0-9.09-5.68,32.3,32.3,0,0,0-11.79-2.06,31.66,31.66,0,0,0-13.45,2.78,28.15,28.15,0,0,0-10.19,8,36.84,36.84,0,0,0-6.45,12.73,59.42,59.42,0,0,0-2.26,17,52.16,52.16,0,0,0,2.47,16.86,35.79,35.79,0,0,0,6.76,12.11A27.37,27.37,0,0,0,178,90.66a33,33,0,0,0,12.72,2.45,29.59,29.59,0,0,0,11.09-2,27.17,27.17,0,0,0,8.84-5.68A31.17,31.17,0,0,0,217,76.62a44,44,0,0,0,3.6-11.12h-14a20.43,20.43,0,0,1-5.49,10.79,15,15,0,0,1-10.76,3.87,14.49,14.49,0,0,1-13.15-7.1,46.07,46.07,0,0,1,.05-39.13,15.15,15.15,0,0,1,13.84-7.21,14.82,14.82,0,0,1,9.74,3.63,18.07,18.07,0,0,1,5.77,9.9h14.06a32.58,32.58,0,0,0-2.74-10.1A27.51,27.51,0,0,0,211.81,21.62Z"/><path id="Trazado_95" data-name="Trazado 95" class="cls-1" d="M240.25,93.11a24,24,0,0,0,9.17-1.63,16.71,16.71,0,0,0,6.33-4.35.36.36,0,0,1,.37-.1.33.33,0,0,1,.24.29,36.89,36.89,0,0,0,.76,5.72h12.2V58.78a30.67,30.67,0,0,0-1.15-8.73,15.08,15.08,0,0,0-3.68-6.4,16.55,16.55,0,0,0-6.74-3.92,33.58,33.58,0,0,0-10.31-1.37A35.68,35.68,0,0,0,237,39.68a17.83,17.83,0,0,0-6.9,3.72,14.1,14.1,0,0,0-3.83,5.75,23.54,23.54,0,0,0-1.29,7.05h12.15a10.25,10.25,0,0,1,2.64-5.56,9.53,9.53,0,0,1,7.07-2.24,12.68,12.68,0,0,1,6.59,1.49,5.23,5.23,0,0,1,1.8,7.18,5.15,5.15,0,0,1-1.2,1.39,18.52,18.52,0,0,1-7.13,2c-3.44.49-6.66,1-9.56,1.65a23.73,23.73,0,0,0-7.45,2.79A13.18,13.18,0,0,0,225,70.11,19,19,0,0,0,223.23,79a13.59,13.59,0,0,0,4.08,10.2A18.26,18.26,0,0,0,240.25,93.11Zm-1.61-21A19.71,19.71,0,0,1,247,69.05a57.14,57.14,0,0,0,5.78-1.38A7.14,7.14,0,0,0,255.66,66,.36.36,0,0,1,256,66a.34.34,0,0,1,.21.32l-.1,5.77a10.47,10.47,0,0,1-1,4.57,12.4,12.4,0,0,1-6.74,6.27,13.63,13.63,0,0,1-5.05.94c-4.65,0-7-2.09-7-6.21a6.72,6.72,0,0,1,2.33-5.5Z"/><path id="Trazado_96" data-name="Trazado 96" class="cls-1" d="M274.25,75.47a16.47,16.47,0,0,0,6.48,12.58,28.69,28.69,0,0,0,18.24,5,26.62,26.62,0,0,0,16.77-4.52A15.26,15.26,0,0,0,321.38,76a12.86,12.86,0,0,0-2.16-7.89,14.63,14.63,0,0,0-6.2-4.55,64.3,64.3,0,0,0-7-2.17c-2.64-.67-5.49-1.44-8.48-2.3a29.58,29.58,0,0,1-6.43-2.44,4.26,4.26,0,0,1-2.28-3.87,3.8,3.8,0,0,1,2.31-3.66,14.68,14.68,0,0,1,6.18-1,12.71,12.71,0,0,1,7.19,1.62A7.62,7.62,0,0,1,307.31,55h12.56a16.86,16.86,0,0,0-5.73-12.37c-3.47-2.85-9-4.3-16.44-4.3a38,38,0,0,0-10,1.16,19.29,19.29,0,0,0-6.7,3.2,11.79,11.79,0,0,0-3.71,4.84,16.46,16.46,0,0,0-1.14,6.09,14.7,14.7,0,0,0,1.4,6.39,13.08,13.08,0,0,0,5,5.21,27,27,0,0,0,6.69,3.06c2.65.85,6.2,1.82,10.56,2.89a32.85,32.85,0,0,1,5.94,2,4.38,4.38,0,0,1,2.68,4.25A4.61,4.61,0,0,1,305.47,82a15.94,15.94,0,0,1-6.6,1.27,14,14,0,0,1-8.14-2.1,6.93,6.93,0,0,1-3-5.71Z"/><path id="Trazado_97" data-name="Trazado 97" class="cls-1" d="M382.11,88.05a28.65,28.65,0,0,0,18.24,5,26.57,26.57,0,0,0,16.76-4.52A15.27,15.27,0,0,0,422.76,76a12.86,12.86,0,0,0-2.16-7.89,14.66,14.66,0,0,0-6.21-4.55,63.63,63.63,0,0,0-7-2.17c-2.64-.67-5.49-1.44-8.47-2.3a29.38,29.38,0,0,1-6.43-2.44,4.24,4.24,0,0,1-2.28-3.87,3.77,3.77,0,0,1,2.3-3.66,14.75,14.75,0,0,1,6.19-1,12.73,12.73,0,0,1,7.19,1.62A7.62,7.62,0,0,1,408.69,55h12.56a16.89,16.89,0,0,0-5.73-12.37c-3.47-2.85-9-4.3-16.44-4.3a37.91,37.91,0,0,0-10,1.16,19.2,19.2,0,0,0-6.7,3.2,11.79,11.79,0,0,0-3.71,4.84,16.06,16.06,0,0,0-1.14,6.09,14.7,14.7,0,0,0,1.4,6.39,13,13,0,0,0,5,5.21,27,27,0,0,0,6.69,3.06c2.64.85,6.2,1.82,10.56,2.89a32.85,32.85,0,0,1,5.94,2,4.41,4.41,0,0,1,2.68,4.25A4.61,4.61,0,0,1,406.85,82a16,16,0,0,1-6.61,1.27,13.91,13.91,0,0,1-8.14-2.1,7,7,0,0,1-3-5.71H375.63A16.43,16.43,0,0,0,382.11,88.05Z"/></g></g></g></g><g id="Grupo_80" data-name="Grupo 80"><path id="Trazado_98" data-name="Trazado 98" class="cls-1" d="M516.32,29.8,481.52,1.5a6.66,6.66,0,0,0-8.42,0L438.29,29.8A6.7,6.7,0,0,0,435.83,35V86.27a6.68,6.68,0,0,0,6.68,6.67h69.6a3,3,0,0,0,.42,0L491.8,69.69a25,25,0,1,1,4.39-4l21.57,24.16a6.74,6.74,0,0,0,1-3.57V35A6.68,6.68,0,0,0,516.32,29.8Z"/><circle id="Elipse_6" data-name="Elipse 6" class="cls-1" cx="477.31" cy="49.43" r="19.88"/></g></g></g></svg>