<svg xmlns="http://www.w3.org/2000/svg" viewBox="0 0 65.23 65.45"><defs><style>.cls-1{fill:#5f9d9d;}.cls-2{fill:#ffb700;}</style></defs><g id="Capa_2" data-name="Capa 2"><g id="Capa_1-2" data-name="Capa 1"><path class="cls-1" d="M59.13,50.37l3.45,3.43c.4.39.7.8.45,1.39s-.75.65-1.31.65c-3.62,0-7.24,0-10.86,0-1.11,0-1.43-.33-1.43-1.47q0-5.38,0-10.79c0-.58.07-1.11.69-1.36s1,.09,1.38.48c1,1,2,2,3,3a4.93,4.93,0,0,0,.33-.4,25.31,25.31,0,0,0-1.91-30.07A25.32,25.32,0,0,0,24,8.22c-.21.08-.4.18-.61.25a1.06,1.06,0,0,1-1.48-.56c-.6-1.17-1.19-2.35-1.76-3.53a1.05,1.05,0,0,1,.61-1.64A29.88,29.88,0,0,1,30.43.16,30.74,30.74,0,0,1,51,5.25,30.78,30.78,0,0,1,65,27.77a30.82,30.82,0,0,1-5.52,22c-.09.13-.18.25-.26.38A.93.93,0,0,0,59.13,50.37Z"/><path class="cls-1" d="M6.08,15.07C5,14,3.78,12.79,2.63,11.63a1.94,1.94,0,0,1-.49-.69c-.24-.7.32-1.32,1.18-1.32H14.51c.9,0,1.28.38,1.28,1.29q0,5.55,0,11.12a1.1,1.1,0,0,1-2,.8c-1-1-2-2.05-3.13-3.15-.2.3-.37.54-.52.79A25.28,25.28,0,0,0,24.05,58a24.85,24.85,0,0,0,17.24-.78c1.34-.55,1.62-.45,2.26.83.49,1,1,2,1.47,2.94s.26,1.4-.63,1.79a31.21,31.21,0,0,1-15.07,2.61A30.91,30.91,0,0,1,9.54,56.44,30.62,30.62,0,0,1,.25,37.73,31,31,0,0,1,5.89,15.5,1.64,1.64,0,0,0,6,15.28,1,1,0,0,0,6.08,15.07Z"/><path class="cls-2" d="M28.83,37.5h-9c-.64,0-1.29,0-1.68-.62s0-1.25.37-1.81l8-12.69L32.46,13c.06-.08.11-.17.16-.25.36-.6.83-1,1.56-.77A1.27,1.27,0,0,1,35,13.48L34.67,18,34,26.92c0,.25,0,.5,0,.83h9.23a1.42,1.42,0,0,1,1.43.65,1.38,1.38,0,0,1-.2,1.5L30.13,52.54c-.37.59-.83,1-1.57.73s-.87-.84-.82-1.54q.51-6.33,1-12.68C28.77,38.57,28.8,38.09,28.83,37.5Z"/></g></g></svg>