<svg xmlns="http://www.w3.org/2000/svg" viewBox="0 0 155.28 102.34"><defs><style>.cls-1{fill:#494846;}</style></defs><g id="Capa_2" data-name="Capa 2"><g id="Capa_1-2" data-name="Capa 1"><g id="Grupo_913" data-name="Grupo 913"><g id="Grupo_1215" data-name="Grupo 1215"><path id="Trazado_1433" data-name="Trazado 1433" class="cls-1" d="M155.28,26.41a10.92,10.92,0,0,0-2.23-6.71L140.75,4A10.61,10.61,0,0,0,132.42,0,10.32,10.32,0,0,0,127,1.52L115,9a10.94,10.94,0,0,1-5.51,1.34,9.93,9.93,0,0,1-4.23-.83L93.49,3.81a14.24,14.24,0,0,0-6.13-1.29A15.35,15.35,0,0,0,78.73,5L77.36,6,72.69,3.65A17.53,17.53,0,0,0,65,2.08a18.32,18.32,0,0,0-7,1.28L50,6.78a16.44,16.44,0,0,1-10.86,0l-8-3.42a11.74,11.74,0,0,0-4.57-.89,13.84,13.84,0,0,0-5.2,1,11.76,11.76,0,0,0-4.38,3L2.41,22.84a9.48,9.48,0,0,0,.74,13.37l.19.16L16.94,48l-6.45,6.73a9.62,9.62,0,0,0,.32,13.61h0l1.31,1.24a3.88,3.88,0,0,1,3.06,6.88,9.6,9.6,0,0,0,3,7h0l1.31,1.25a9.75,9.75,0,0,0,10.45,1.89,9.54,9.54,0,0,0,2.68,4.66l1.31,1.25a9.72,9.72,0,0,0,12,1,9.59,9.59,0,0,0,2.52,4.14l1.31,1.24a9.73,9.73,0,0,0,13.68-.33l5.7-6,7.75,7.17a9.72,9.72,0,0,0,13.67-.5l1.24-1.33A9.65,9.65,0,0,0,94,94l3,2.78a9.75,9.75,0,0,0,13.68-.5L111.91,95a9.49,9.49,0,0,0,2.47-5.31,9.48,9.48,0,0,0,9.5-2.72l1.23-1.33a9.6,9.6,0,0,0,2.58-6.55,9.83,9.83,0,0,0-.27-2.16A9.55,9.55,0,0,0,133.23,74l1.24-1.32A9.63,9.63,0,0,0,134,59l0,0-2.31-2.14L152.53,33.8A11,11,0,0,0,155.28,26.41ZM18.82,67a4.45,4.45,0,0,1-3-1.2l-1.31-1.25a4.36,4.36,0,0,1-.15-6.18h0L27.54,44.54a4.43,4.43,0,0,1,6.22-.15l1.3,1.24a8.41,8.41,0,0,1,1.36,3.18,4.44,4.44,0,0,1-.78,2.47L21.37,66.15a4.48,4.48,0,0,1-2.55.8ZM29.37,80.71a4.43,4.43,0,0,1-6.22.15l-1.31-1.25h0a4.4,4.4,0,0,1-.15-6.19S39.31,55.09,39.45,54.91a4.42,4.42,0,0,1,6.09,0l1.31,1.25A4.4,4.4,0,0,1,47,62.32Zm14.43,7.8a4.43,4.43,0,0,1-6.22.15l-1.31-1.25a4.33,4.33,0,0,1-.38-5.89L48.16,68.71a4.4,4.4,0,0,1,6,.06L55.45,70a4.39,4.39,0,0,1,.15,6.19Zm23.31-1.35-7.44,7.77a4.43,4.43,0,0,1-6.22.14l-1.31-1.24A4.38,4.38,0,0,1,52,87.64l7.44-7.77a4.43,4.43,0,0,1,6.22-.14L67,81A4.4,4.4,0,0,1,67.11,87.16Zm64.67-21.07a4.38,4.38,0,0,1-1.17,3l-1.24,1.32a4.41,4.41,0,0,1-6.21.23L102.37,51.4l-3.59,3.85L121,75.86a4.38,4.38,0,0,1,.23,6.18h0L120,83.37a4.43,4.43,0,0,1-6.21.23L93,64.38l-3.59,3.85,18.45,17.06a4.38,4.38,0,0,1,.18,6.13l-1.23,1.32a4.43,4.43,0,0,1-6.22.23L82.2,76h0l-3.59,3.86h0l.07.06L87.9,88.4a4.33,4.33,0,0,1,.08,6l-1.23,1.32a4.43,4.43,0,0,1-6.21.23l-8-7.44a9.48,9.48,0,0,0-1.91-11.32L69.3,75.94a9.63,9.63,0,0,0-6.67-2.65c-.19,0-.38,0-.56,0,0,0,0-.09,0-.13,0-2.53-3-7-3-7L57.79,65a3.72,3.72,0,0,1-4.3-5.67,9.63,9.63,0,0,0-3-7L49.19,51.1a9.73,9.73,0,0,0-6.68-2.65c-.27,0-.55.06-.83.08a9.54,9.54,0,0,0-3-6.67h0l-1.3-1.24a9.72,9.72,0,0,0-13.68.32l-3.12,3.25L6.8,32.41a4.23,4.23,0,0,1-.49-6,.6.6,0,0,1,.08-.08L21,10A6.73,6.73,0,0,1,23.4,8.38a8.82,8.82,0,0,1,3.21-.63,6.44,6.44,0,0,1,2.49.47l8,3.42a21.56,21.56,0,0,0,15,0l8-3.42a13.06,13.06,0,0,1,4.94-.86,12.63,12.63,0,0,1,5.29,1l2.14,1.07-8.16,5.74A9.42,9.42,0,0,0,62,28.3l.18.25h0L63.25,30a10.55,10.55,0,0,0,8.43,4.13A10.19,10.19,0,0,0,77,32.69l4.88-2.93a8,8,0,0,1,4-1,8.42,8.42,0,0,1,4.78,1.34l13.5,9.68a133.11,133.11,0,0,1,10.61,8.66L130.4,62.9a4.36,4.36,0,0,1,1.38,3.18ZM148.61,30.3l-20.81,23-9.46-8.74a141.73,141.73,0,0,0-11.11-9.07l-13.5-9.68a13.58,13.58,0,0,0-7.86-2.33,13.25,13.25,0,0,0-6.79,1.74l-4.87,2.93a5,5,0,0,1-2.55.68,5.26,5.26,0,0,1-4.19-2L66.4,25.4h0a4.18,4.18,0,0,1,.82-5.85l.14-.1L81.79,9.31a10.15,10.15,0,0,1,5.57-1.52,9,9,0,0,1,3.82.76l11.74,5.69a15.2,15.2,0,0,0,6.54,1.36,16.15,16.15,0,0,0,8.31-2.14l12-7.47a5,5,0,0,1,2.64-.72,5.3,5.3,0,0,1,4.16,1.93l12.31,15.74a6,6,0,0,1-.26,7.34Z"/></g></g></g></g></svg>