<svg xmlns="http://www.w3.org/2000/svg" xmlns:xlink="http://www.w3.org/1999/xlink" viewBox="0 0 132.46 261.18"><defs><style>.cls-1{fill:none;}.cls-2{clip-path:url(#clip-path);}.cls-3{fill:#cdac7d;}.cls-4{fill:#005170;}</style><clipPath id="clip-path" transform="translate(-10.52 -25.54)"><rect class="cls-1" width="153.99" height="184.3"/></clipPath></defs><g id="Capa_2" data-name="Capa 2"><g id="Capa_1-2" data-name="Capa 1"><g id="Grupo_889" data-name="Grupo 889"><g class="cls-2"><g id="Enmascarar_grupo_888" data-name="Enmascarar grupo 888"><path id="Trazado_1103" data-name="Trazado 1103" class="cls-3" d="M12.14,286.72a1.62,1.62,0,0,1-1.62-1.61V155.88a1.58,1.58,0,0,1,.48-1.14L140.23,26A1.62,1.62,0,0,1,143,27.15V155.88a1.58,1.58,0,0,1-.48,1.14L13.28,286.25A1.57,1.57,0,0,1,12.14,286.72Z" transform="translate(-10.52 -25.54)"/></g></g></g><g id="Grupo_890" data-name="Grupo 890"><path id="Trazado_1104" data-name="Trazado 1104" class="cls-4" d="M26.93,151.37l4.41-16.57c.27-1,.53-2.08.83-3.1a12.83,12.83,0,0,1,15.54-8.95c1.39.35,2.78.73,4.22,1.11.32-.87.59-1.72.94-2.55a11.75,11.75,0,0,1,12.2-7.26,1.51,1.51,0,0,0,.9-.24,22.53,22.53,0,0,0,2-1.36,2.28,2.28,0,0,0,.66-.82,14.18,14.18,0,0,1,18.62-7.42,14.4,14.4,0,0,1,3.28,2,1.73,1.73,0,0,0,1.07.34,11.93,11.93,0,0,1,12.77,8.93c.09.28.19.56.28.82,2.06-.46,4-1.06,6.08-1.35a12.82,12.82,0,0,1,13.46,8.35c.09.25,5.1,19,5.16,19.28a2.1,2.1,0,0,1-1.16,2.74l-.11,0a2.08,2.08,0,0,1-2.58-1.43l0-.15c-.08-.21-5.09-19-5.18-19.18-1.9-4.57-6-6.59-11-5.28l-3.64,1,1.16,4.36c1-.25,1.83-.49,2.7-.68a5.85,5.85,0,0,1,7,4q2.12,7.42,4,14.93a5.88,5.88,0,0,1-4.08,7c-.86.27-1.73.49-2.63.73,0,.18,0,.36.07.53l1.09,4a48,48,0,0,0,6.34-2.29,8.58,8.58,0,0,0,4.05-9.57,3.74,3.74,0,0,1,0-1.85,1.76,1.76,0,0,1,2-1.18,2,2,0,0,1,1.83,1.73,12.64,12.64,0,0,1-1.45,10.05,12.4,12.4,0,0,1-7.57,5.73l-4,1.1a18.2,18.2,0,0,1,.11,3.76,6,6,0,0,1-4.66,5q-7.83,2.13-15.67,4.22c-3.49.93-7,1.85-10.44,2.83a1.62,1.62,0,0,0-.89.87,10.23,10.23,0,0,0-.58,2.12,7,7,0,0,1-5.38,6.05h-2c-.93-.27-1.85-.55-2.78-.8-2.32-.62-22.57-6.05-24.89-6.69a2,2,0,0,1-1.74-2.32,2,2,0,0,1,.32-.84,2.13,2.13,0,0,1,2.6-.72c2.84.75,23.59,6.37,26.43,7.12,1.8.47,2.79-.12,3.28-1.94l3.56-13.28c1.28-4.81,2.56-9.62,3.88-14.55a8,8,0,0,1-7-1.77,7.89,7.89,0,0,1-2.69-6.68c-.15-.05-.21-.1-.27-.09a6.48,6.48,0,0,1-7-6,6.41,6.41,0,0,1,.39-2.74c.21-.61.31-1.27.48-1.95l-15.67-4.2a2,2,0,0,0-.19.31q-5.58,20.9-11.16,41.77a2.18,2.18,0,0,0,1.37,2.77l.3.07c1.35.38,2.72.71,4.07,1.09a2.05,2.05,0,0,1-.53,4.07,2,2,0,0,1-.53-.14c-1.45-.37-2.91-.74-4.34-1.19a5.93,5.93,0,0,1-4.39-5,19.37,19.37,0,0,1,.16-3.65c-1.17-.32-2.45-.65-3.74-1a12.69,12.69,0,0,1-9-8.26c-.31-.84-.5-1.72-.74-2.58Zm59.13,18.94.67-.15L110,163.9c2.23-.61,2.71-1.45,2.12-3.66l-10.39-38.86c-.23-.86-.48-1.7-.73-2.59L91,121.51c4.73,3.79,5.88,8.51,4.39,14Q92,148.1,88.63,160.66c-.85,3.15-1.69,6.32-2.57,9.64Zm-29.19-47.9c.45.14.89.28,1.33.39L74,127a2.09,2.09,0,0,1,1.88,2.29,2.25,2.25,0,0,1-.15.62c-.33,1.3-.7,2.58-1,3.88a2.39,2.39,0,1,0,4.42,1.84,2.09,2.09,0,0,0,.17-.64c.35-1.26.67-2.53,1-3.78.41-1.48,1.38-2.14,2.62-1.8s1.64,1.41,1.27,2.84c-.77,2.91-1.56,5.82-2.31,8.73a3.77,3.77,0,1,0,7.23,2.14l0-.17c.88-3.15,1.77-6.31,2.53-9.5a7.72,7.72,0,0,0-5.19-9.6h-.06a2.56,2.56,0,0,1-1.71-1.9A10.1,10.1,0,0,0,68,117.42a2.86,2.86,0,0,1-2.81.79,7.42,7.42,0,0,0-8.35,4.2ZM51,127.81c-1.53-.42-2.9-.83-4.3-1.15a8.7,8.7,0,0,0-10.6,6.22c-1.67,6-3.27,11.93-4.75,17.94a9.5,9.5,0,0,0,0,4.34c1,4.24,5.37,7.22,10.36,7.24l1.13-4.21c-.87-.24-1.67-.44-2.46-.67a5.93,5.93,0,0,1-4.29-7.2l.06-.23Q38,143,40,135.85a5.93,5.93,0,0,1,7.15-4.39l.31.09,2.37.61Zm23.19-17.25a14.48,14.48,0,0,1,13.47,7.63l12.15-3.27a7.42,7.42,0,0,0-8.15-4.27,3.17,3.17,0,0,1-3.17-.87,10,10,0,0,0-14.08.54l-.22.24Zm38.59,36.18c.84-.22,1.58-.4,2.31-.61a2,2,0,0,0,1.61-2.27,1.85,1.85,0,0,0-.11-.42c-.22-.87-.47-1.74-.7-2.61q-1.5-5.62-3-11.23c-.34-1.27-1.21-1.93-2.3-1.7-.85.17-1.67.44-2.64.7Zm-64-10.63c-.92-.24-1.72-.49-2.53-.65a1.87,1.87,0,0,0-2.32,1.26,1.8,1.8,0,0,0,0,.19Q41.9,144,40,151.16a1.87,1.87,0,0,0,1.1,2.32c.87.32,1.78.51,2.75.79,1.63-6.08,3.22-12.05,4.86-18.16Z" transform="translate(-10.52 -25.54)"/><path id="Trazado_1105" data-name="Trazado 1105" class="cls-4" d="M38.77,80.79c.31.11.61.24.92.34a7.26,7.26,0,1,1-4.25,0l.93-.32ZM37.52,91.26a3.22,3.22,0,0,0,3.23-3.16,3.28,3.28,0,0,0-3.25-3.26,3.23,3.23,0,0,0-3.15,3.23,3.17,3.17,0,0,0,3.17,3.19Z" transform="translate(-10.52 -25.54)"/><path id="Trazado_1106" data-name="Trazado 1106" class="cls-4" d="M101.74,99.94a7.25,7.25,0,1,1,7.24,7.27A7.25,7.25,0,0,1,101.74,99.94Zm7.28,3.21a3.24,3.24,0,0,0,3.18-3.22,3.3,3.3,0,0,0-3.22-3.2,3.22,3.22,0,0,0-3.2,3.24V100a3.18,3.18,0,0,0,3.22,3.12Z" transform="translate(-10.52 -25.54)"/><path id="Trazado_1107" data-name="Trazado 1107" class="cls-4" d="M89.79,81.33a6.15,6.15,0,1,1-6.18,6.11v0A6.14,6.14,0,0,1,89.79,81.33Zm2,6.18a2.07,2.07,0,1,0-2.14,2,2.06,2.06,0,0,0,2.14-2Z" transform="translate(-10.52 -25.54)"/><path id="Trazado_1108" data-name="Trazado 1108" class="cls-4" d="M35,108.52a6.15,6.15,0,1,1-6.11,6.17v0A6.15,6.15,0,0,1,35,108.52ZM37,114.71a2,2,0,1,0,0,.06v-.07Z" transform="translate(-10.52 -25.54)"/><path id="Trazado_1109" data-name="Trazado 1109" class="cls-4" d="M55.37,111.14l-3.65-1c-2-.54-4.06-1-6.07-1.63a2,2,0,0,1-1.4-2.39v0a2,2,0,0,1,2.4-1.44l.39.07c2.8.74,5.6,1.47,8.4,2.23a2,2,0,0,1,1.71,2.22,2,2,0,0,1-.26.76A5.89,5.89,0,0,1,55.37,111.14Z" transform="translate(-10.52 -25.54)"/><path id="Trazado_1110" data-name="Trazado 1110" class="cls-4" d="M62.44,106.76a6.08,6.08,0,0,1-1.59-1.31c-1.58-2.56-3.07-5.18-4.56-7.79a2,2,0,0,1,.54-2.81l.13-.08a2,2,0,0,1,2.73.69,1.5,1.5,0,0,1,.09.18c1.53,2.59,3,5.19,4.52,7.82a2.2,2.2,0,0,1-.81,3A2.05,2.05,0,0,1,62.44,106.76Z" transform="translate(-10.52 -25.54)"/><path id="Trazado_1111" data-name="Trazado 1111" class="cls-4" d="M74.57,91.7c-.2.79-.45,1.76-.71,2.73-.55,2.06-1.1,4.13-1.69,6.19a2,2,0,1,1-4-.61,2.34,2.34,0,0,1,.09-.38q1.14-4.36,2.36-8.71a1.94,1.94,0,0,1,2.27-1.54l.08,0A2,2,0,0,1,74.57,91.7Z" transform="translate(-10.52 -25.54)"/><path id="Trazado_1112" data-name="Trazado 1112" class="cls-4" d="M124.91,131.58a2,2,0,0,1,2,2v0a2,2,0,0,1-4-.08,2,2,0,0,1,2-2Z" transform="translate(-10.52 -25.54)"/><path id="Trazado_1113" data-name="Trazado 1113" class="cls-4" d="M60.5,176.74a2,2,0,0,1-1.94,2h-.11a2,2,0,0,1,0-4,2,2,0,0,1,2,2Z" transform="translate(-10.52 -25.54)"/></g></g></g></svg>