<svg xmlns="http://www.w3.org/2000/svg" xmlns:xlink="http://www.w3.org/1999/xlink" viewBox="0 0 132.28 260.83"><defs><style>.cls-1{fill:none;}.cls-2{clip-path:url(#clip-path);}.cls-3{fill:#cdac7d;}.cls-4{fill:#005170;}</style><clipPath id="clip-path" transform="translate(-11.09 -25.48)"><rect class="cls-1" width="154.62" height="184.44"/></clipPath></defs><g id="Capa_2" data-name="Capa 2"><g id="Capa_1-2" data-name="Capa 1"><g id="Grupo_883" data-name="Grupo 883"><g class="cls-2"><g id="Grupo_882" data-name="Grupo 882"><path id="Trazado_1099" data-name="Trazado 1099" class="cls-3" d="M12.7,286.31a1.61,1.61,0,0,1-1.61-1.61V155.64a1.6,1.6,0,0,1,.48-1.14L140.62,26a1.61,1.61,0,0,1,2.28,0,1.65,1.65,0,0,1,.47,1.14V155.64a1.65,1.65,0,0,1-.47,1.15l-129,129A1.65,1.65,0,0,1,12.7,286.31Z" transform="translate(-11.09 -25.48)"/></g></g></g><g id="Grupo_887" data-name="Grupo 887"><g id="Grupo_886" data-name="Grupo 886"><path id="Trazado_1101" data-name="Trazado 1101" class="cls-4" d="M120,91.51C108.15,79.71,88.1,77.92,70.79,87A17.42,17.42,0,0,0,47,112.33,34,34,0,0,0,44.5,122.8a1.61,1.61,0,0,0-.08.38,32.44,32.44,0,0,0,.19,5.66v0c.14,1.13.34,2.26.59,3.37,0,.11,0,.23.08.34.26,1.07.56,2.14.93,3.2,0,.14.1.27.14.41.39,1.07.81,2.15,1.31,3.21a13.38,13.38,0,0,1,1.05,8.76c-.07.28-.17.55-.24.82s-.2.73-.33,1.08-.27.65-.4,1-.22.56-.35.83-.39.71-.59,1.06-.23.43-.35.63c-.25.38-.51.73-.78,1.09-.12.16-.23.34-.35.5-.31.38-.66.75-1,1.13-.11.12-.2.24-.32.36-.37.38-.78.74-1.2,1.1-.11.1-.21.21-.33.31-.49.41-1,.81-1.58,1.2l-.16.12c-.62.43-1.27.85-1.95,1.25a70.23,70.23,0,0,0-7.12,4.72l-2.77,2.13a5.1,5.1,0,0,0-.94,7.17,3.5,3.5,0,0,0,.44.5l9.11,9.12a5.12,5.12,0,0,0,3.62,1.5h.38a5.14,5.14,0,0,0,3.73-2l2.87-3.86q1.23-1.66,2.48-3.65c.57-.9,1.15-1.84,1.73-2.86.39-.69.8-1.33,1.21-1.94a20.63,20.63,0,0,1,5.4-5.58c.07,0,.13-.11.2-.15.38-.25.78-.47,1.17-.69.15-.09.3-.19.46-.27.35-.18.71-.33,1.07-.49s.43-.2.66-.29.64-.21,1-.32.56-.2.86-.28a12.76,12.76,0,0,1,7.39.37c.47.16.91.32,1.3.49l.05,0c.78.34,1.56.63,2.35.91l.6.21c.73.24,1.46.46,2.2.65l.2.06a32.07,32.07,0,0,0,9.85,1l.28-.05c9.18-.6,18.28-5.1,26.56-13.39C133.22,135.43,135.45,107,120,91.51ZM49.57,90.3A14,14,0,1,1,69.3,110a13,13,0,0,1-1,.93,3.58,3.58,0,0,1-.39.29c-.24.18-.47.37-.71.53l-.51.3c-.21.13-.43.27-.65.39s-.38.18-.58.27-.42.21-.63.3l-.62.23c-.21.07-.42.15-.63.21s-.44.12-.66.18l-.61.15c-.23,0-.47.08-.7.12L61,114c-.25,0-.5,0-.76.06l-.53,0h-.82l-.46,0-.9-.1-.37-.06c-.33-.05-.65-.12-1-.2l-.28-.06c-.35-.1-.7-.2-1-.32l-.17-.06c-.38-.14-.75-.29-1.11-.46l-.07,0a14,14,0,0,1-3.33-2.21l-.38-.34-.22-.19a14,14,0,0,1,0-19.73Zm-7.15,91.3a1.63,1.63,0,0,1-2.28.33l-.18-.15-9.11-9.12a1.63,1.63,0,0,1,0-2.31l.16-.13,2.77-2.14a70.78,70.78,0,0,1,6.77-4.48,30.5,30.5,0,0,0,4.24-3h0c.63-.54,1.22-1.09,1.77-1.66l.13-.15c.5-.52,1-1.06,1.42-1.61l.19-.27c.4-.53.79-1.06,1.13-1.61.09-.13.15-.28.23-.42.31-.51.61-1,.88-1.57.08-.17.14-.34.21-.51.25-.53.48-1.06.68-1.61.06-.18.11-.38.17-.56.18-.54.36-1.08.5-1.65a0,0,0,0,1,0,0h0a16.65,16.65,0,0,0-1.29-11c-.2-.42-.35-.85-.53-1.28a30.37,30.37,0,0,1-2.39-10.1l37,37h0c-.83-.05-1.65-.14-2.48-.26l-.18,0c-.79-.12-1.57-.28-2.35-.46l-.29-.07c-.76-.18-1.51-.41-2.27-.65l-.34-.11c-.85-.29-1.71-.61-2.56-1a19.62,19.62,0,0,0-3.72-1.18c-.17,0-.33-.08-.49-.1l-.47-.07c-.31,0-.62-.1-.92-.12H68.6c-.4,0-.81-.05-1.21-.06h0c-.44,0-.88,0-1.32,0l-.37.05c-.33,0-.65.07-1,.12s-.72.15-1.08.24l-.23.05h0c-.69.19-1.35.41-2,.66l-.16.05a19.65,19.65,0,0,0-1.87.83l-.17.08a17.29,17.29,0,0,0-1.67,1l-.25.14c-.56.37-1.1.78-1.64,1.21a1.67,1.67,0,0,0-.16.12,27.5,27.5,0,0,0-6.17,7.57,59.6,59.6,0,0,1-4,6.17Zm47.25-18.2,0-.05L48.08,121.79h0a30.64,30.64,0,0,1,1.69-7.12,17,17,0,0,0,2.58,1.41l.11.05c.39.17.78.32,1.18.46l.32.12c.37.12.72.22,1.09.31l.46.12c.34.07.68.15,1,.21l.55.07c.32,0,.65.09,1,.12s.41,0,.62,0,.52,0,.78,0h.14c.27,0,.54,0,.81,0,.44,0,.86-.06,1.3-.12s.63-.08.94-.14.45-.1.67-.15.59-.13.89-.21.44-.14.66-.21.57-.19.86-.3.43-.17.64-.27.57-.25.85-.39l.6-.31c.29-.16.56-.33.84-.5l.56-.35c.3-.2.59-.42.88-.65s.3-.22.44-.34a16.41,16.41,0,0,0,1.25-1.12,17,17,0,0,0,1.14-1.27l.36-.47c.22-.29.44-.58.64-.88l.37-.59c.17-.28.34-.55.48-.83s.23-.44.33-.66.26-.54.38-.81.19-.47.28-.71.19-.54.28-.82.15-.49.22-.75.13-.53.19-.8.11-.52.16-.78.08-.53.11-.8.07-.54.09-.81,0-.51,0-.77,0-.56,0-.84,0-.49,0-.74,0-.58-.06-.87-.06-.45-.09-.67-.09-.62-.15-.93c0-.16-.08-.32-.12-.48a17.68,17.68,0,0,0-1.22-3.52c-.08-.16-.15-.33-.23-.48s-.32-.57-.49-.85-.22-.39-.35-.58-.34-.51-.52-.76-.2-.31-.32-.46C89,81.73,106.94,83.44,117.47,94c14.16,14.16,11.94,40.32-4.86,57.12-7.32,7.33-15.07,11.45-22.94,12.31Z" transform="translate(-11.09 -25.48)"/><path id="Trazado_1102" data-name="Trazado 1102" class="cls-4" d="M52.46,100.16a7,7,0,0,1,7-7,1.75,1.75,0,0,0,0-3.49h0A10.48,10.48,0,0,0,49,100.16a1.75,1.75,0,0,0,3.49,0Z" transform="translate(-11.09 -25.48)"/></g></g></g></g></svg>