<svg xmlns="http://www.w3.org/2000/svg" xmlns:xlink="http://www.w3.org/1999/xlink" viewBox="0 0 130.5 257.31"><defs><style>.cls-1{fill:none;}.cls-2{clip-path:url(#clip-path);}.cls-3{fill:#cdac7d;}.cls-4{fill:#005270;}</style><clipPath id="clip-path" transform="translate(-10.95 -25.14)"><rect class="cls-1" width="152.54" height="181.95"/></clipPath></defs><g id="Capa_2" data-name="Capa 2"><g id="Capa_1-2" data-name="Capa 1"><g class="cls-2"><g id="Grupo_857" data-name="Grupo 857"><path id="Trazado_1087" data-name="Trazado 1087" class="cls-3" d="M12.53,282.46a1.57,1.57,0,0,1-.6-.12,1.59,1.59,0,0,1-1-1.47V153.55a1.6,1.6,0,0,1,.46-1.12L138.73,25.61a1.59,1.59,0,0,1,1.73-.34,1.56,1.56,0,0,1,1,1.46V153.55a1.6,1.6,0,0,1-.46,1.13L13.66,282A1.59,1.59,0,0,1,12.53,282.46Z" transform="translate(-10.95 -25.14)"/></g></g><g id="Grupo_877" data-name="Grupo 877"><g id="Grupo_868" data-name="Grupo 868"><g id="Grupo_867" data-name="Grupo 867"><path id="Trazado_1092" data-name="Trazado 1092" class="cls-4" d="M120.33,129.74,109,103.18a6.2,6.2,0,0,0-5.72-3.77H54.85a6.21,6.21,0,0,0-5.71,3.77L37.8,129.74a14.54,14.54,0,0,0-8.48,13.19V159.5a6.24,6.24,0,0,0,6.22,6.22h2.08v10.36a6.22,6.22,0,0,0,6.22,6.21h8.29a6.22,6.22,0,0,0,6.22-6.21V165.72H99.8v10.36a6.22,6.22,0,0,0,6.21,6.21h8.3a6.22,6.22,0,0,0,6.22-6.21V165.72h2.06a6.23,6.23,0,0,0,6.21-6.22V142.93A14.51,14.51,0,0,0,120.33,129.74ZM53,104.81a2.09,2.09,0,0,1,1.9-1.26h48.42a2.05,2.05,0,0,1,1.91,1.24l10.1,23.64-1,0H43.84c-.33,0-.66,0-1,0Zm1.24,71.27a2.08,2.08,0,0,1-2.08,2.08H43.84a2.08,2.08,0,0,1-2.08-2.08V165.72H54.19Zm60.1,2.08H106a2.08,2.08,0,0,1-2.07-2.08V165.72h12.43v10.36h0A2.08,2.08,0,0,1,114.29,178.16Zm8.3-16.58H35.54a2.08,2.08,0,0,1-2.08-2.08V142.93a10.36,10.36,0,0,1,10.36-10.35h70.47a10.36,10.36,0,0,1,10.36,10.35V159.5h0A2.08,2.08,0,0,1,122.59,161.58Z" transform="translate(-10.95 -25.14)"/></g></g><g id="Grupo_870" data-name="Grupo 870"><g id="Grupo_869" data-name="Grupo 869"><path id="Trazado_1093" data-name="Trazado 1093" class="cls-4" d="M48,136.71a10.36,10.36,0,1,0,10.35,10.36A10.37,10.37,0,0,0,48,136.71Zm0,16.58a6.22,6.22,0,1,1,6.21-6.22A6.24,6.24,0,0,1,48,153.29Z" transform="translate(-10.95 -25.14)"/></g></g><g id="Grupo_872" data-name="Grupo 872"><g id="Grupo_871" data-name="Grupo 871"><path id="Trazado_1094" data-name="Trazado 1094" class="cls-4" d="M110.15,136.71a10.36,10.36,0,1,0,10.36,10.36A10.36,10.36,0,0,0,110.15,136.71Zm0,16.58a6.22,6.22,0,1,1,6.22-6.22A6.24,6.24,0,0,1,110.15,153.29Z" transform="translate(-10.95 -25.14)"/></g></g><g id="Grupo_874" data-name="Grupo 874"><g id="Grupo_873" data-name="Grupo 873"><path id="Trazado_1095" data-name="Trazado 1095" class="cls-4" d="M93.58,149.15h-29a2.08,2.08,0,0,0,0,4.16h29a2.08,2.08,0,0,0,0-4.16Z" transform="translate(-10.95 -25.14)"/></g></g><g id="Grupo_876" data-name="Grupo 876"><g id="Grupo_875" data-name="Grupo 875"><path id="Trazado_1096" data-name="Trazado 1096" class="cls-4" d="M93.58,140.85h-29a2.08,2.08,0,0,0,0,4.16h29a2.08,2.08,0,0,0,0-4.16Z" transform="translate(-10.95 -25.14)"/></g></g></g></g></g></svg>