<svg xmlns="http://www.w3.org/2000/svg" xmlns:xlink="http://www.w3.org/1999/xlink" viewBox="0 0 130.5 257.31"><defs><style>.cls-1{fill:none;}.cls-2{clip-path:url(#clip-path);}.cls-3{fill:#cdac7d;}.cls-4{fill:#005170;}</style><clipPath id="clip-path" transform="translate(-10.95 -25.14)"><rect class="cls-1" width="152.54" height="181.95"/></clipPath></defs><g id="Capa_2" data-name="Capa 2"><g id="Capa_1-2" data-name="Capa 1"><g class="cls-2"><g id="Grupo_859" data-name="Grupo 859"><path id="Trazado_1088" data-name="Trazado 1088" class="cls-3" d="M12.53,282.46a1.57,1.57,0,0,1-.6-.12,1.59,1.59,0,0,1-1-1.47V153.55a1.57,1.57,0,0,1,.47-1.12L138.73,25.61a1.59,1.59,0,0,1,1.73-.34,1.56,1.56,0,0,1,1,1.46V153.55a1.6,1.6,0,0,1-.46,1.13L13.66,282A1.59,1.59,0,0,1,12.53,282.46Z" transform="translate(-10.95 -25.14)"/></g></g><g id="Grupo_878" data-name="Grupo 878"><path id="Trazado_1097" data-name="Trazado 1097" class="cls-4" d="M127.24,118.3h-1.87v-7.48a5.61,5.61,0,0,0-7.48-5.29v-7.8a5.62,5.62,0,0,0-5.61-5.61h-3.74a5.62,5.62,0,0,0-5.62,5.61V118.3H97a5.6,5.6,0,0,0-7.15-3.42h0l-.21.08A5.6,5.6,0,0,0,82.76,111a4.35,4.35,0,0,0-.61.2,5.62,5.62,0,0,0-6.88-4A5.67,5.67,0,0,0,73,108.51a5.62,5.62,0,0,0-7.92.43h0a5.54,5.54,0,0,0-1.43,3.75v1.87H61.78a5.61,5.61,0,0,0-5.29,3.74H50.55V97.73a5.61,5.61,0,0,0-5.61-5.61H41.2a5.62,5.62,0,0,0-5.61,5.61v7.8a5.61,5.61,0,0,0-7.47,5.29v7.48H26.25a5.61,5.61,0,0,0-5.61,5.61v3.74a5.61,5.61,0,0,0,5.61,5.61h1.87v7.48a5.61,5.61,0,0,0,5.6,5.61A5.71,5.71,0,0,0,35.6,146v7.81a5.62,5.62,0,0,0,5.61,5.61H45a5.63,5.63,0,0,0,5.61-5.61V133.26h5.61v5.62a1.89,1.89,0,0,0,.31,1l7.17,10.75V180a1.87,1.87,0,0,0,1.87,1.87H91.7A1.87,1.87,0,0,0,93.57,180V150.4l3.65-10.94a2,2,0,0,0,.09-.59v-5.61h5.61v20.58a5.63,5.63,0,0,0,5.61,5.61h3.75a5.63,5.63,0,0,0,5.61-5.61V146a5.6,5.6,0,0,0,7.16-3.41,5.7,5.7,0,0,0,.32-1.87v-7.49h1.87a5.62,5.62,0,0,0,5.61-5.61v-3.74A5.63,5.63,0,0,0,127.24,118.3Zm-35.53,0a1.87,1.87,0,0,1,1.87,1.87v7.48a1.87,1.87,0,0,1-3.74,0v-7.48a1.87,1.87,0,0,1,1.86-1.87Zm-7.48-3.74a1.87,1.87,0,0,1,1.87,1.87v11.22a1.87,1.87,0,1,1-3.74,0V116.43a1.87,1.87,0,0,1,1.86-1.87Zm-7.48-3.74a1.87,1.87,0,0,1,1.87,1.87v15a1.87,1.87,0,0,1-3.74,0v-15a1.87,1.87,0,0,1,1.86-1.87Zm-5.61,16.83a1.87,1.87,0,0,1-3.74,0v-1.87h1.87a5.65,5.65,0,0,0,1.87-.32Zm-3.74-15a1.87,1.87,0,0,1,3.74,0v1.87H67.4ZM26.25,129.52a1.88,1.88,0,0,1-1.87-1.87v-3.74A1.88,1.88,0,0,1,26.25,122h1.87v7.48Zm7.48,13.1a1.88,1.88,0,0,1-1.87-1.87V110.82a1.87,1.87,0,0,1,3.74,0v29.92a1.87,1.87,0,0,1-1.87,1.87h0Zm13.1,11.22A1.87,1.87,0,0,1,45,155.71H41.22a1.87,1.87,0,0,1-1.87-1.87V97.73a1.87,1.87,0,0,1,1.87-1.87H45a1.87,1.87,0,0,1,1.87,1.87Zm3.74-24.31V122h5.61v7.49Zm43,9L90,149.51a1.7,1.7,0,0,0-.1.59v28.05H67.41V155.71H73A1.87,1.87,0,1,0,73,152H67.41V150.1a1.92,1.92,0,0,0-.31-1l-7.17-10.75V120.17a1.87,1.87,0,0,1,1.87-1.87h9.35v1.87A1.87,1.87,0,0,1,69.28,122H65.54a1.87,1.87,0,0,0-1.87,1.87v7.48a1.87,1.87,0,0,0,1.87,1.87,9.37,9.37,0,0,1,9.35,9.35,1.87,1.87,0,0,0,3.74,0,13.06,13.06,0,0,0-3.94-9.35h18.9Zm3.42-9a5.46,5.46,0,0,0,.33-1.87V122h5.61v7.49Zm17.16,24.31a1.87,1.87,0,0,1-1.87,1.87h-3.74a1.87,1.87,0,0,1-1.87-1.87V97.73a1.87,1.87,0,0,1,1.87-1.87h3.74a1.87,1.87,0,0,1,1.87,1.87Zm7.48-13.1a1.87,1.87,0,0,1-3.74,0V110.82a1.87,1.87,0,0,1,3.74,0Zm7.48-13.09a1.87,1.87,0,0,1-1.87,1.87h-1.87V122h1.87a1.87,1.87,0,0,1,1.87,1.87Z" transform="translate(-10.95 -25.14)"/></g></g></g></svg>