<svg xmlns="http://www.w3.org/2000/svg" xmlns:xlink="http://www.w3.org/1999/xlink" viewBox="0 0 129.89 256.12"><defs><style>.cls-1{fill:none;}.cls-2{clip-path:url(#clip-path);}.cls-3{fill:#cdac7d;}.cls-4{fill:#005170;stroke:#005170;stroke-width:0.61px;}</style><clipPath id="clip-path" transform="translate(-10.89 -25.03)"><rect class="cls-1" width="151.83" height="181.11"/></clipPath></defs><g id="Capa_2" data-name="Capa 2"><g id="Capa_1-2" data-name="Capa 1"><g id="Grupo_349" data-name="Grupo 349"><g class="cls-2"><g id="Grupo_227" data-name="Grupo 227"><path id="Trazado_398" data-name="Trazado 398" class="cls-3" d="M12.48,281.14a1.59,1.59,0,0,1-1.59-1.58V152.83a1.58,1.58,0,0,1,.47-1.12L138.09,25.49a1.58,1.58,0,0,1,2.24,0,1.62,1.62,0,0,1,.46,1.12V152.83a1.6,1.6,0,0,1-.46,1.12L13.6,280.68A1.57,1.57,0,0,1,12.48,281.14Z" transform="translate(-10.89 -25.03)"/></g></g></g><g id="Grupo_350" data-name="Grupo 350"><g id="Grupo_236" data-name="Grupo 236"><g id="Grupo_235" data-name="Grupo 235"><path id="Trazado_402" data-name="Trazado 402" class="cls-4" d="M131.14,117.94l-15.79-15.79a1.6,1.6,0,0,0-.83-.44L97.15,98.56a1.58,1.58,0,0,0-1.84,1.26h0a1.32,1.32,0,0,0,0,.28,9.51,9.51,0,0,1-.14,1.5L84.23,98.88v-.51a7.89,7.89,0,1,0-9.47-7.74h3.15a4.74,4.74,0,1,1,4.74,4.74A1.58,1.58,0,0,0,81.07,97h0v1.92L70.15,101.6a10.59,10.59,0,0,1-.13-1.5,1.57,1.57,0,0,0-.57-1.21,1.54,1.54,0,0,0-1.29-.34L50.79,101.7a1.59,1.59,0,0,0-.84.44L34.16,117.93a1.58,1.58,0,0,0,0,2.23h0L46.79,132.8a1.58,1.58,0,0,0,2.23,0h0l3.62-3.63v10.41H41.59a7.87,7.87,0,0,0-4.68,14.21,7.81,7.81,0,0,0,0,12.64,7.87,7.87,0,0,0,4.68,14.21H98.44a1.6,1.6,0,0,0,1.12-.46l12.63-12.64a1.5,1.5,0,0,0,.45-1.11h0V129.18l3.62,3.62a1.58,1.58,0,0,0,2.23,0h0l12.63-12.63a1.58,1.58,0,0,0,0-2.23ZM82.65,101.73l11.49,2.87a13.54,13.54,0,0,1-23,0ZM36.86,147.48a4.74,4.74,0,0,1,4.73-4.74H76.34a4.74,4.74,0,1,1,0,9.48H41.6a4.74,4.74,0,0,1-4.74-4.74Zm0,12.63a4.73,4.73,0,0,1,4.73-4.73H76.34a4.74,4.74,0,0,1,0,9.47H41.6a4.74,4.74,0,0,1-4.74-4.73Zm39.48,17.38H41.59a4.74,4.74,0,0,1,0-9.48H76.34a4.74,4.74,0,0,1,0,9.48ZM100,175.25V168h7.25Zm17.38-45.8-10-9.94-2.23,2.24,4.27,4.27v38.83h-11a1.57,1.57,0,0,0-1.58,1.57h0v11.06H82.61a7.79,7.79,0,0,0-1.41-10.93l-.17-.13a7.82,7.82,0,0,0,1.7-10.93,7.62,7.62,0,0,0-1.7-1.7,7.87,7.87,0,0,0-4.69-14.21H55.81V126l4.27-4.27-2.23-2.23-9.94,9.94-10.4-10.4,14.32-14.33L67,102c1,6.84,7.66,12.14,15.65,12.14s14.62-5.3,15.65-12.14l15.16,2.75,14.33,14.33Z" transform="translate(-10.89 -25.03)"/><rect id="Rectángulo_80" data-name="Rectángulo 80" class="cls-4" x="29.12" y="120.87" width="37.9" height="3.16"/><rect id="Rectángulo_81" data-name="Rectángulo 81" class="cls-4" x="29.12" y="133.51" width="36.32" height="3.16"/><rect id="Rectángulo_82" data-name="Rectángulo 82" class="cls-4" x="29.12" y="146.14" width="36.32" height="3.16"/></g></g></g></g></g></svg>