<svg xmlns="http://www.w3.org/2000/svg" xmlns:xlink="http://www.w3.org/1999/xlink" viewBox="0 0 145.13 257.31"><defs><style>.cls-1{fill:none;}.cls-2{clip-path:url(#clip-path);}.cls-3{fill:#cdac7d;}.cls-4{fill:#005170;}</style><clipPath id="clip-path" transform="translate(-4.2 -25.14)"><rect class="cls-1" width="152.54" height="181.95"/></clipPath></defs><g id="Capa_2" data-name="Capa 2"><g id="Capa_1-2" data-name="Capa 1"><g class="cls-2"><g id="Grupo_861" data-name="Grupo 861"><path id="Trazado_1089" data-name="Trazado 1089" class="cls-3" d="M12.53,282.46a1.78,1.78,0,0,1-.6-.12,1.59,1.59,0,0,1-1-1.47V153.55a1.61,1.61,0,0,1,.47-1.13L138.73,25.61a1.58,1.58,0,0,1,2.71,1.12V153.55a1.56,1.56,0,0,1-.46,1.12L13.66,282A1.57,1.57,0,0,1,12.53,282.46Z" transform="translate(-4.2 -25.14)"/></g></g><g id="Grupo_864" data-name="Grupo 864"><g id="Grupo_863" data-name="Grupo 863"><path id="Trazado_1090" data-name="Trazado 1090" class="cls-4" d="M119.13,120.8a32.24,32.24,0,0,0-11.95,2.39l-5.08-9.86V97.64a2.25,2.25,0,0,0-1.5-2.1L88.65,91.06a2.15,2.15,0,0,0-2.8,1.23.36.36,0,0,0,0,.11A2.16,2.16,0,0,0,87,95.2l.11,0,10.61,3.89v12.7H54V107.5h5.38a2.25,2.25,0,0,0,0-4.49H45.45a2.25,2.25,0,0,0,0,4.49h4v6.12L45.15,123A28.74,28.74,0,0,0,34.39,121a30.19,30.19,0,0,0-.17,60.38h.17a30.28,30.28,0,0,0,30-28h9.71a2.13,2.13,0,0,0,1.8-.89L99.4,118.56l3.74,7A29.57,29.57,0,0,0,88.94,151a30.19,30.19,0,0,0,60.38.18V151a30.1,30.1,0,0,0-30-30.19ZM34.4,176.7A25.71,25.71,0,0,1,8.69,151h0a25.7,25.7,0,0,1,25.7-25.7h0a24.15,24.15,0,0,1,8.81,1.64L32.3,150.1v.14a1.39,1.39,0,0,0-.15.75v.15a1.39,1.39,0,0,0,.15.75V152c0,.15,0,.15.15.3,0,.15.15.15.3.3v.14c.15.16.45.3.6.45h.15a1.27,1.27,0,0,0,.74.15H59.8a25.42,25.42,0,0,1-25.4,23.31Zm3.43-27.95,9.42-19.88A25.54,25.54,0,0,1,60,148.75Zm35.12,0H64.29A30.41,30.41,0,0,0,49,124.69l4-8.52H95.37Zm46,27.95A25.71,25.71,0,0,1,93.28,151h0a25.74,25.74,0,0,1,12-21.67L117,152a2.32,2.32,0,0,0,1.94,1.19,2.93,2.93,0,0,0,1-.29,2.23,2.23,0,0,0,.89-3l-11.8-22.72a27.52,27.52,0,0,1,9.86-1.94A25.71,25.71,0,0,1,144.69,151h0A25.7,25.7,0,0,1,119,176.69Z" transform="translate(-4.2 -25.14)"/></g></g></g></g></svg>