<svg xmlns="http://www.w3.org/2000/svg" xmlns:xlink="http://www.w3.org/1999/xlink" viewBox="0 0 134.04 264.3"><defs><style>.cls-1{fill:none;}.cls-2{clip-path:url(#clip-path);}.cls-3{fill:#cdac7d;}.cls-4{fill:#005170;}</style><clipPath id="clip-path" transform="translate(-11.24 -25.82)"><rect class="cls-1" width="156.67" height="186.88"/></clipPath></defs><g id="Capa_2" data-name="Capa 2"><g id="Capa_1-2" data-name="Capa 1"><g id="Grupo_885" data-name="Grupo 885"><g class="cls-2"><g id="Grupo_884" data-name="Grupo 884"><path id="Trazado_1100" data-name="Trazado 1100" class="cls-3" d="M12.88,290.12a1.63,1.63,0,0,1-1.64-1.64V157.71a1.65,1.65,0,0,1,.49-1.16L142.5,26.3a1.63,1.63,0,0,1,2.31,0,1.65,1.65,0,0,1,.48,1.16V157.71a1.67,1.67,0,0,1-.48,1.16L14,289.64A1.64,1.64,0,0,1,12.88,290.12Z" transform="translate(-11.24 -25.82)"/></g></g></g><g id="Grupo_892" data-name="Grupo 892"><path id="Trazado_1114" data-name="Trazado 1114" class="cls-4" d="M78,83.78c1.54.86,3.14,1.65,4.62,2.61,8.12,5.29,12.25,12.85,12.64,22.49,0,.26,0,.53,0,.79,0,0,0,0,.25.27.44-1.71.92-3.26,1.23-4.84a24.42,24.42,0,0,0-.11-9.82,2,2,0,0,1,1.07-2.41,1.9,1.9,0,0,1,2.45.67c4.66,6.32,8.78,12.92,11.17,20.48a4.84,4.84,0,0,1,.28,1.24,1.94,1.94,0,0,1-1.53,1.94,1.92,1.92,0,0,1-2.24-1.2c-.42-1.07-.7-2.2-1.16-3.25-1-2.32-2.09-4.62-3.22-6.89-.63-1.26-1.41-2.45-2.21-3.81-.32,1.9-.53,3.64-.93,5.35a31.61,31.61,0,0,1-6.55,13.15c-.32.4-.76.9-1.2,1a3.2,3.2,0,0,1-1.92-.34,1.75,1.75,0,0,1-.64-2,53.56,53.56,0,0,0,1.08-5.62c.9-9-1.46-16.85-8.94-22.61-.42-.32-.85-.61-1.09-.77a54.23,54.23,0,0,1-.43,6.37,13.34,13.34,0,0,1-4.79,7.78,33.43,33.43,0,0,0-9.15,11.77,2,2,0,0,1-2.11,1.29,1.91,1.91,0,0,1-1.73-1.87A29,29,0,0,0,58,102.67l-.77-1c-.18,1.54-.32,2.89-.51,4.24a41.78,41.78,0,0,1-3.62,11.76,27.23,27.23,0,0,0-.14,26,1.26,1.26,0,0,0,.7.58c2.89.8,5.79,1.56,8.68,2.33a2.81,2.81,0,0,0,.49,0c0-2.06-.16-4.08,0-6.06.48-5.07,2.75-9.44,5.63-13.53.16-.22.32-.43.47-.65a2.12,2.12,0,0,1,2.39-1.16c1,.23,1.41.94,1.54,2.39.22-.34.4-.59.56-.85a14.68,14.68,0,0,1,6.52-5.58,2,2,0,0,1,2.76,2.5,13.14,13.14,0,0,0-.49,1.5,4,4,0,0,0,1.21,4.23c.91.82,1.82,1.62,2.62,2.32.9-1.25,1.91-2.74,3-4.17.72-.93,1.57-1.82,2.92-1.35s1.33,1.73,1.35,2.9a18.26,18.26,0,0,0,1.9,8.11,15.54,15.54,0,0,1,1.45,9.48c1.39-.35,2.65-.66,3.9-1,1.69-.45,3.38-.88,5-1.39a2,2,0,0,0,1-.88,29.09,29.09,0,0,0,3-10.4c.14-1.36,1-2.2,2.13-2.1a2,2,0,0,1,1.86,2.18,2.45,2.45,0,0,1-.08.39c-.55,3.07-1.22,6.11-1.83,9.14,6.28-1.84,11.78-.52,14.88,5.86,2.69,5.52,1,10.38-3.68,14.35a10.94,10.94,0,0,1,5.87,4.94,34.74,34.74,0,0,1,1.66,4.28v3a3,3,0,0,0-.17.45A11.44,11.44,0,0,1,117.16,185a11.14,11.14,0,0,1-1.39-.31c-11.65-3.1-23.28-6.25-34.94-9.34a4.51,4.51,0,0,0-2.19,0Q61.27,180,43.9,184.68a11.49,11.49,0,0,1-7.7-21.62c.13-.07.25-.16.38-.24a11.52,11.52,0,0,1,1-19.43c3.35-1.89,6.85-1.8,10.59-.53-.19-.54-.32-.87-.42-1.2-2.25-6.74-2.84-13.54-.48-20.37C48,119.12,49,117,50,114.93a42.85,42.85,0,0,0,3.4-17.74c0-1,.14-1.93,1.21-2.37s1.88.09,2.63.83A32,32,0,0,1,64.73,107c.31.81.62,1.64,1,2.69,2.23-3.85,5.55-6.46,8.49-9.42A9.15,9.15,0,0,0,77,92.66a30.9,30.9,0,0,0-1.31-5.55c-.53-1.74-.42-2.36,1.07-3.31ZM51,178.64l.63-.16,53.81-14.41c4.32-1.16,8.66-2.27,13-3.5a7.5,7.5,0,0,0-3.84-14.5c-3.1.77-6.18,1.63-9.26,2.46L47.76,164a5.72,5.72,0,0,0-.57.24c4.68,3.92,6,8.66,3.79,14.44Zm18-44.72a20.42,20.42,0,0,0-2,13.31,1.15,1.15,0,0,0,1,.89c3.69,1,7.38,2,11.08,2.95a3.14,3.14,0,0,0,1.43,0q5.6-1.45,11.17-3a1.35,1.35,0,0,0,.81-.79,10.09,10.09,0,0,0,.09-6c-.84-2.53-1.91-5-2.89-7.5a11.88,11.88,0,0,0-.93,5.67c.13,1.46-.51,2.43-1.71,2.54s-2-.61-2.23-2.08c0-.23,0-.46-.08-.69a9.72,9.72,0,0,0-2.84-5.85,9.94,9.94,0,0,1-3.77-6.32c-.61.85-1.1,1.43-1.46,2.07a12,12,0,0,0-.81,9.22,2,2,0,0,1-.92,2.37,1.87,1.87,0,0,1-2.48-.54,23,23,0,0,1-2.06-3.12C69.83,136.08,69.46,135,69,133.92Zm2.9,19.46a6.86,6.86,0,0,0-.69-.3c-8.68-2.32-17.35-4.69-26-7a7.49,7.49,0,0,0-9.2,5.23,7.36,7.36,0,0,0-.19,3.06c.42,4.08,5.51,7.69,9.08,6.22a33.79,33.79,0,0,1,4.09-1.1l4.38-1.22c-2.31-.82-4.58-1.44-6.86-2.06-1.43-.38-2.12-1.29-1.84-2.44s1.33-1.76,2.79-1.37c4.35,1.15,8.71,2.33,13.07,3.48a2.62,2.62,0,0,0,1.24.13c3.34-.85,6.67-1.75,10.17-2.69Zm39.53,20.22a7.52,7.52,0,1,0,7.58-7.46H119a7.53,7.53,0,0,0-7.53,7.46Zm-63.36.13a7.52,7.52,0,1,0-7.59,7.45h.05a7.53,7.53,0,0,0,7.54-7.45Zm39.72-.84,0,.2,20.81,5.58a11.65,11.65,0,0,1,.94-11.6Z" transform="translate(-11.24 -25.82)"/><path id="Trazado_1115" data-name="Trazado 1115" class="cls-4" d="M111.36,126a2,2,0,0,1-1.92-2v0a2,2,0,0,1,2-2,2,2,0,0,1,2,2A2,2,0,0,1,111.36,126Z" transform="translate(-11.24 -25.82)"/><path id="Trazado_1116" data-name="Trazado 1116" class="cls-4" d="M115,154.21a2.08,2.08,0,0,1-1.81,2l-11.64,3.13-10.87,2.91a4.49,4.49,0,0,1-1.26.21,2,2,0,0,1-1.84-2.07A2,2,0,0,1,89,158.64c1.36-.39,2.73-.73,4.1-1.1l18.69-5a5.53,5.53,0,0,1,1.06-.21,2,2,0,0,1,2.1,1.88Z" transform="translate(-11.24 -25.82)"/><path id="Trazado_1117" data-name="Trazado 1117" class="cls-4" d="M79.79,163.67c0,1-.57,1.68-1.82,2q-4.91,1.33-9.82,2.63c-2.35.63-4.7,1.27-7.05,1.89a2,2,0,0,1-2.66-1.06l-.07-.18c-.35-1.22.32-2.22,1.75-2.6l16.78-4.49C78.57,161.42,79.8,162.2,79.79,163.67Z" transform="translate(-11.24 -25.82)"/></g></g></g></svg>