<svg xmlns="http://www.w3.org/2000/svg" xmlns:xlink="http://www.w3.org/1999/xlink" viewBox="0 0 130.5 257.31"><defs><style>.cls-1{fill:none;}.cls-2{clip-path:url(#clip-path);}.cls-3{fill:#cdac7d;}.cls-4{fill:#005170;}</style><clipPath id="clip-path" transform="translate(-10.95 -25.14)"><rect class="cls-1" width="152.54" height="181.95"/></clipPath></defs><g id="Capa_2" data-name="Capa 2"><g id="Capa_1-2" data-name="Capa 1"><g class="cls-2"><g id="Grupo_865" data-name="Grupo 865"><path id="Trazado_1091" data-name="Trazado 1091" class="cls-3" d="M12.53,282.46a1.78,1.78,0,0,1-.6-.12,1.59,1.59,0,0,1-1-1.47V153.55a1.61,1.61,0,0,1,.47-1.13L138.73,25.61a1.58,1.58,0,0,1,2.71,1.12V153.55a1.56,1.56,0,0,1-.46,1.12L13.66,282A1.57,1.57,0,0,1,12.53,282.46Z" transform="translate(-10.95 -25.14)"/></g></g><g id="Grupo_880" data-name="Grupo 880"><g id="Grupo_879" data-name="Grupo 879"><path id="Trazado_1098" data-name="Trazado 1098" class="cls-4" d="M128.73,144V125.71h-2.2a25.28,25.28,0,0,0-17.39,6.9H78.74V105h43.81a2.75,2.75,0,0,0,1.19-5.22l-46-22.2a1.76,1.76,0,0,0-1.49,0l-46,22.2A2.74,2.74,0,0,0,31.48,105H75.29V132.6H44.89a25.31,25.31,0,0,0-17.39-6.89H25.3V144a9.24,9.24,0,0,0,8.15,9.18l-6.37,25.51a1.72,1.72,0,1,0,3.34.83l6.17-24.69,7.75,24.79a1.72,1.72,0,1,0,3.29-1l-7.92-25.34H52.88v-2.2a25.68,25.68,0,0,0-1.33-8.15H66.67v6.9h5.17v13.8a13.79,13.79,0,0,1-13.79,13.79H54.6a1.72,1.72,0,0,0-1.72,1.72h0a1.72,1.72,0,0,0,1.72,1.73H99.42a1.73,1.73,0,0,0,1.73-1.72h0a1.72,1.72,0,0,0-1.73-1.72H96a13.8,13.8,0,0,1-13.79-13.79V149.85h5.18V143h15.12a25.13,25.13,0,0,0-1.33,8.15v2.2h11.58l-6.36,25.43a1.72,1.72,0,1,0,3.34.84l6.18-24.7,7.74,24.8a1.72,1.72,0,0,0,3.29-1L119,153.29h.48a9.25,9.25,0,0,0,9.25-9.24ZM77,81.08l42.46,20.49H34.56ZM37.38,149.84H34.55a5.8,5.8,0,0,1-5.8-5.8h0V129.19a21.94,21.94,0,0,1,14,6.19l.17.17a21.9,21.9,0,0,1,4.44,6.39l.43.94a21.92,21.92,0,0,1,1.56,7Zm46.53-3.44H78.74v17.24a17.21,17.21,0,0,0,6.89,13.79H68.4a17.23,17.23,0,0,0,6.89-13.79V146.4H70.12V143H83.91Zm3.45-6.9H50.08A26,26,0,0,0,48,136.05h58.13a26.08,26.08,0,0,0-2.14,3.45Zm18.82,3.38.43-.93a22,22,0,0,1,4.44-6.4l.18-.17a21.89,21.89,0,0,1,14-6.19V144a5.8,5.8,0,0,1-5.8,5.8H104.63a21.65,21.65,0,0,1,1.56-7Z" transform="translate(-10.95 -25.14)"/></g></g></g></g></svg>