<svg xmlns="http://www.w3.org/2000/svg" viewBox="0 0 504.47 108.29"><defs><style>.cls-1{fill:#a7b0b5;}.cls-2{fill:#96c0d2;}.cls-3{fill:#137691;}.cls-4{fill:#9a0f1f;}.cls-5{fill:#11687f;}.cls-6{fill:#abcede;}.cls-7{fill:#6c9cb0;}.cls-8{fill:#213238;}.cls-9{fill:#201d1d;}</style></defs><g id="Capa_2" data-name="Capa 2"><g id="Capa_1-2" data-name="Capa 1"><g id="Grupo_97" data-name="Grupo 97"><g id="Grupo_93" data-name="Grupo 93"><path id="Trazado_147" data-name="Trazado 147" class="cls-1" d="M17.45,76.64a10.93,10.93,0,0,1,4.22-.85A10.93,10.93,0,0,0,17.45,76.64Z"/><path id="Trazado_148" data-name="Trazado 148" class="cls-1" d="M24.88,97a10.83,10.83,0,0,0,7.61-10.34A10.83,10.83,0,0,1,24.88,97Z"/><path id="Trazado_149" data-name="Trazado 149" class="cls-2" d="M37.89,68.45a21.58,21.58,0,0,1-5.41-14.3A10.83,10.83,0,0,1,21.65,65,21.56,21.56,0,0,1,36,70.37,21.74,21.74,0,0,0,37.89,68.45Z"/><path id="Trazado_150" data-name="Trazado 150" class="cls-2" d="M100.94,70.37A21.61,21.61,0,0,1,86.61,75.8h0A10.83,10.83,0,1,1,75.79,86.62a21.62,21.62,0,0,0-7.34-16.24,22.18,22.18,0,0,1-4.69,3.16l-.08,0c-.23.12-.46.22-.69.33l-.23.1-.63.26-.32.13-.59.21-.38.13-.56.17-.44.13-.53.14-.49.11-.51.11-.53.09-.49.08-.59.08-.44,0c-.23,0-.46,0-.69.06l-.37,0c-.35,0-.71,0-1.07,0a21.57,21.57,0,0,1-14.31-5.42,23.43,23.43,0,0,0-1.93,1.93,21.52,21.52,0,0,1,5.42,14.31h0a10.83,10.83,0,0,1,21.65,0,21.66,21.66,0,1,0,36-16.24Z"/><path id="Trazado_151" data-name="Trazado 151" class="cls-3" d="M21.66,32.48A10.83,10.83,0,1,0,10.83,21.65,10.82,10.82,0,0,0,21.66,32.48Z"/><path id="Trazado_153" data-name="Trazado 153" class="cls-4" d="M56.26,64.75l.18,0Z"/><path id="Trazado_155" data-name="Trazado 155" class="cls-4" d="M61.93,61.64l-.3.3Z"/><path id="Trazado_156" data-name="Trazado 156" class="cls-4" d="M55.13,64.91l.21,0Z"/><path id="Trazado_157" data-name="Trazado 157" class="cls-4" d="M60,63.2l.25-.16Z"/><path id="Trazado_158" data-name="Trazado 158" class="cls-4" d="M58.24,64.15l.24-.1Z"/><path id="Trazado_159" data-name="Trazado 159" class="cls-4" d="M60.93,62.56l.25-.21Z"/><path id="Trazado_160" data-name="Trazado 160" class="cls-4" d="M57.25,64.5l.16,0Z"/><path id="Trazado_161" data-name="Trazado 161" class="cls-4" d="M62.36,61.17c.08-.1.17-.19.25-.3C62.53,61,62.44,61.07,62.36,61.17Z"/><path id="Trazado_162" data-name="Trazado 162" class="cls-4" d="M59.26,63.67l.18-.1Z"/><path id="Trazado_163" data-name="Trazado 163" class="cls-4" d="M63,73.89l-.22.1Z"/><path id="Trazado_164" data-name="Trazado 164" class="cls-4" d="M62.14,74.25l-.32.13Z"/><path id="Trazado_165" data-name="Trazado 165" class="cls-4" d="M63.77,73.53l-.07,0Z"/><path id="Trazado_166" data-name="Trazado 166" class="cls-4" d="M56.27,75.68c-.23,0-.46,0-.69,0Z"/><path id="Trazado_167" data-name="Trazado 167" class="cls-4" d="M55.21,75.76c-.35,0-.71,0-1.07,0C54.51,75.79,54.86,75.78,55.21,75.76Z"/><path id="Trazado_168" data-name="Trazado 168" class="cls-4" d="M60.29,74.9l-.43.12Z"/><path id="Trazado_169" data-name="Trazado 169" class="cls-4" d="M59.32,75.16l-.48.11Z"/><path id="Trazado_170" data-name="Trazado 170" class="cls-4" d="M61.23,74.59l-.38.13Z"/><path id="Trazado_171" data-name="Trazado 171" class="cls-4" d="M57.31,75.55l-.6.08Z"/><path id="Trazado_172" data-name="Trazado 172" class="cls-4" d="M58.32,75.38l-.53.1Z"/><path id="Trazado_173" data-name="Trazado 173" class="cls-4" d="M58.48,64.06c.27-.12.53-.24.78-.38Z"/><path id="Trazado_174" data-name="Trazado 174" class="cls-4" d="M55.34,64.89c.31,0,.62-.08.92-.14Z"/><path id="Trazado_175" data-name="Trazado 175" class="cls-4" d="M56.44,64.71c.28-.07.55-.13.81-.21Q56.86,64.62,56.44,64.71Z"/><path id="Trazado_176" data-name="Trazado 176" class="cls-4" d="M57.41,64.46c.28-.09.56-.2.84-.31C58,64.26,57.69,64.37,57.41,64.46Z"/><path id="Trazado_177" data-name="Trazado 177" class="cls-4" d="M54.14,65c.34,0,.67,0,1,0C54.79,64.93,54.48,65,54.14,65Z"/><path id="Trazado_178" data-name="Trazado 178" class="cls-4" d="M59.44,63.57q.3-.16.6-.36Q59.74,63.41,59.44,63.57Z"/><path id="Trazado_180" data-name="Trazado 180" class="cls-4" d="M62.61,60.87c.15-.19.3-.39.44-.59C62.91,60.48,62.76,60.68,62.61,60.87Z"/><path id="Trazado_181" data-name="Trazado 181" class="cls-4" d="M61.93,61.64c.15-.15.28-.31.43-.47Z"/><path id="Trazado_182" data-name="Trazado 182" class="cls-4" d="M60.3,63c.21-.15.43-.31.63-.48Z"/><path id="Trazado_183" data-name="Trazado 183" class="cls-4" d="M61.18,62.35c.16-.13.3-.27.45-.4C61.48,62.08,61.34,62.22,61.18,62.35Z"/><path id="Trazado_184" data-name="Trazado 184" class="cls-4" d="M62.78,74l-.64.27Z"/><path id="Trazado_185" data-name="Trazado 185" class="cls-4" d="M63.7,73.57l-.7.33Z"/><path id="Trazado_186" data-name="Trazado 186" class="cls-4" d="M57.79,75.47l-.48.08Z"/><path id="Trazado_187" data-name="Trazado 187" class="cls-4" d="M58.84,75.27l-.52.11Z"/><path id="Trazado_188" data-name="Trazado 188" class="cls-4" d="M60.86,74.72l-.56.18Z"/><path id="Trazado_189" data-name="Trazado 189" class="cls-4" d="M61.82,74.38l-.59.21Z"/><path id="Trazado_190" data-name="Trazado 190" class="cls-4" d="M59.86,75l-.54.14Z"/><path id="Trazado_191" data-name="Trazado 191" class="cls-4" d="M63.77,73.53a21.81,21.81,0,0,0,4.69-3.16h0A22.18,22.18,0,0,1,63.77,73.53Z"/><path id="Trazado_192" data-name="Trazado 192" class="cls-4" d="M56.71,75.63l-.45.05Z"/><path id="Trazado_193" data-name="Trazado 193" class="cls-4" d="M55.58,75.73l-.37,0Z"/><path id="Trazado_194" data-name="Trazado 194" class="cls-5" d="M21.67,108.27A21.65,21.65,0,0,0,43.32,86.62h0a21.65,21.65,0,0,1-21.65,21.66Z"/><path id="Trazado_195" data-name="Trazado 195" class="cls-6" d="M36,70.37A21.58,21.58,0,0,1,21.67,75.8,10.82,10.82,0,0,1,32.49,86.62a21.52,21.52,0,0,1,5.42-14.31A22.08,22.08,0,0,0,36,70.37Z"/><path id="Trazado_196" data-name="Trazado 196" class="cls-5" d="M10.84,86.6a10.84,10.84,0,0,1,6.61-10,10.83,10.83,0,0,0,7.43,20.32,10.81,10.81,0,0,1-14-10.34Z"/><path id="Trazado_197" data-name="Trazado 197" class="cls-1" d="M32.49,86.61A10.83,10.83,0,1,1,21.65,75.79h0A21.57,21.57,0,0,0,36,70.37,21.65,21.65,0,1,0,43.3,86.61h0A21.56,21.56,0,0,0,37.89,72.3,21.55,21.55,0,0,0,32.49,86.61Z"/><path id="Trazado_198" data-name="Trazado 198" class="cls-7" d="M32.49,86.61A10.83,10.83,0,1,1,21.65,75.79h0A21.57,21.57,0,0,0,36,70.37,21.65,21.65,0,1,0,43.3,86.61h0A21.56,21.56,0,0,0,37.89,72.3,21.55,21.55,0,0,0,32.49,86.61Z"/><path id="Trazado_199" data-name="Trazado 199" class="cls-6" d="M97.45,21.65A10.83,10.83,0,0,1,86.62,32.48a21.58,21.58,0,0,1,14.32,5.41,21.56,21.56,0,0,0,7.33-16.24Z"/><g id="Grupo_92" data-name="Grupo 92"><path id="Trazado_200" data-name="Trazado 200" class="cls-6" d="M65,21.65A10.83,10.83,0,0,1,54.14,32.48a21.58,21.58,0,0,1,14.32,5.41,21.56,21.56,0,0,0,7.33-16.24h0A10.82,10.82,0,0,1,86.62,10.83V0A21.65,21.65,0,0,0,65,21.65Z"/><path id="Trazado_201" data-name="Trazado 201" class="cls-6" d="M86.62,0l-.08.07V10.69l.08.14h0A10.82,10.82,0,0,1,97.45,21.65h10.82A21.65,21.65,0,0,0,86.62,0Z"/></g></g><path id="Trazado_202" data-name="Trazado 202" class="cls-4" d="M100.94,37.89A21.64,21.64,0,0,0,65,54.13a10.76,10.76,0,0,1-1.92,6.14h0a6.13,6.13,0,0,1-.44.6l-.24.3c-.14.16-.28.31-.43.46s-.2.21-.31.31-.28.28-.44.4l-.25.22c-.21.16-.42.32-.64.47l-.25.17a6,6,0,0,1-.6.36l-.18.1c-.25.14-.52.26-.78.38l-.24.1c-.28.11-.56.22-.84.31l-.16,0c-.26.08-.53.14-.8.2l-.19,0a9.27,9.27,0,0,1-.92.14l-.21,0c-.33,0-.65,0-1,0a10.83,10.83,0,1,1,8.91-17,24.28,24.28,0,0,1,5.41-10.09,21.64,21.64,0,0,0-36,16.23v0a21.58,21.58,0,0,0,5.41,14.3,21.86,21.86,0,0,0,1.93,1.92A21.57,21.57,0,0,0,54.14,75.8c.36,0,.72,0,1.07,0l.37,0,.69,0,.45-.06.59-.07.48-.08.53-.1.52-.11.48-.11.54-.14.43-.12.56-.17.38-.13.59-.22.32-.12.63-.26L63,73.9l.7-.32.07,0a21.77,21.77,0,0,0,4.69-3.15h0a24.59,24.59,0,0,0,1.91-1.91A21.59,21.59,0,0,0,86.61,75.8h0a21.65,21.65,0,0,0,14.31-37.89ZM86.62,65A10.83,10.83,0,1,1,97.45,54.13,10.82,10.82,0,0,1,86.62,65Z"/><g id="Grupo_96" data-name="Grupo 96"><g id="Grupo_94" data-name="Grupo 94"><path id="Trazado_203" data-name="Trazado 203" class="cls-8" d="M221.35,71.41a18.39,18.39,0,0,1-13.68-4.81l3.25-3.25a13.64,13.64,0,0,0,10.37,3.86c5.48,0,8.87-2,8.87-5.9,0-2.91-1.69-4.54-5.55-4.87L219.12,56c-6.51-.54-10-3.46-10-8.94,0-6.1,5.15-9.76,12.27-9.76a18.85,18.85,0,0,1,12,3.59L230.23,44a14.21,14.21,0,0,0-8.87-2.65c-4.88,0-7.45,2.11-7.45,5.49,0,2.85,1.62,4.54,5.82,4.88l5.35.47c5.83.55,9.83,2.78,9.83,9C234.9,67.69,229.42,71.41,221.35,71.41Z"/><path id="Trazado_204" data-name="Trazado 204" class="cls-8" d="M246.9,28.46a3.32,3.32,0,0,1,0-6.64h0a3.32,3.32,0,0,1,0,6.64ZM244.45,71V37.67h4.88V71Z"/><path id="Trazado_205" data-name="Trazado 205" class="cls-8" d="M360.64,71a8,8,0,0,1-8.51-7.33,8.81,8.81,0,0,1,0-1.54V22.77h4.88V61.93c0,3.25,1.08,4.88,4.47,4.88h2.64V71Z"/><path id="Trazado_206" data-name="Trazado 206" class="cls-8" d="M380.89,71h-4.33l-12.2-33.33h5.29l9.08,26.76,9.14-26.76h5.29Z"/><path id="Trazado_207" data-name="Trazado 207" class="cls-8" d="M437.67,28.46a3.32,3.32,0,0,1,0-6.64h0a3.32,3.32,0,0,1,0,6.64ZM435.23,71V37.67h4.87V71Z"/><path id="Trazado_208" data-name="Trazado 208" class="cls-8" d="M471,44a7,7,0,0,0-5.76-2.44,8.14,8.14,0,0,0-8,8.25c0,.23,0,.46,0,.69V71h-4.88V37.67h4.88v4.07a11.2,11.2,0,0,1,9.35-4.47,10.27,10.27,0,0,1,8,3.11Z"/><path id="Trazado_209" data-name="Trazado 209" class="cls-8" d="M499.11,71V67.81a11.68,11.68,0,0,1-9.62,3.59,11.84,11.84,0,0,1-9.42-3.05,9.6,9.6,0,0,1-2.51-6.77c0-5.83,4.07-9.62,11.52-9.62h10V48.78c0-4.88-2.44-7.33-8.54-7.33a8.76,8.76,0,0,0-8.4,3.8l-3.32-3c3-3.86,6.37-5,11.79-5,8.95,0,13.35,3.86,13.35,11.11V71Zm0-15.38h-9.35c-5,0-7.46,2-7.46,5.89s2.38,5.69,7.66,5.69A9.68,9.68,0,0,0,497.41,65a7.69,7.69,0,0,0,1.69-5.76Z"/><path id="Trazado_210" data-name="Trazado 210" class="cls-8" d="M155.16,71.41a16.3,16.3,0,0,1-6.68-1.36,17,17,0,0,1-10.1-15.61v-.12a17.37,17.37,0,0,1,4.79-12,16.65,16.65,0,0,1,5.32-3.7,16.33,16.33,0,0,1,6.68-1.36,18.34,18.34,0,0,1,4.24.44,15.61,15.61,0,0,1,6.39,3.1,24.26,24.26,0,0,1,2.47,2.28L165,46.47A22.65,22.65,0,0,0,160.77,43a10.36,10.36,0,0,0-5.67-1.46,11,11,0,0,0-4.62,1,11.56,11.56,0,0,0-3.73,2.69,12.44,12.44,0,0,0-2.47,4,13.83,13.83,0,0,0-.89,5v.13a13.38,13.38,0,0,0,.92,5,12.59,12.59,0,0,0,2.54,4A11.48,11.48,0,0,0,155.42,67,11.11,11.11,0,0,0,161,65.63a19,19,0,0,0,4.4-3.48l3.09,2.91a21.6,21.6,0,0,1-5.6,4.56A15.52,15.52,0,0,1,155.16,71.41Z"/><path id="Trazado_211" data-name="Trazado 211" class="cls-8" d="M176.89,56.28a13.25,13.25,0,0,0,1.27,4.62,10.86,10.86,0,0,0,2.6,3.42,11.2,11.2,0,0,0,3.54,2.12,11.58,11.58,0,0,0,4.12.73,12.49,12.49,0,0,0,5.85-1.27,17.45,17.45,0,0,0,4.47-3.35l3,2.72a20,20,0,0,1-5.64,4.46,16.53,16.53,0,0,1-7.85,1.69A16.1,16.1,0,0,1,182,70.19a15.64,15.64,0,0,1-5.2-3.48,16.81,16.81,0,0,1-3.51-5.41,18.27,18.27,0,0,1-1.3-7,19,19,0,0,1,1.18-6.68,16.68,16.68,0,0,1,3.26-5.44,15.15,15.15,0,0,1,5-3.64,15.81,15.81,0,0,1,12.75,0,14.21,14.21,0,0,1,4.8,3.68,16.39,16.39,0,0,1,3,5.51,22.28,22.28,0,0,1,1,6.78v.73a8.18,8.18,0,0,1-.06,1Zm21.08-4a15.38,15.38,0,0,0-.95-4.18A11.79,11.79,0,0,0,195,44.62a9.29,9.29,0,0,0-3.17-2.39,10,10,0,0,0-4.27-.89,9.6,9.6,0,0,0-3.92.82,10,10,0,0,0-3.23,2.3A12.69,12.69,0,0,0,178.07,48a14,14,0,0,0-1.18,4.35Z"/><path id="Trazado_212" data-name="Trazado 212" class="cls-8" d="M401.29,56.28a13.25,13.25,0,0,0,1.27,4.62,11.06,11.06,0,0,0,6.14,5.54,11.53,11.53,0,0,0,4.11.73,12.5,12.5,0,0,0,5.86-1.27,17,17,0,0,0,4.46-3.35l3,2.72a19.79,19.79,0,0,1-5.63,4.46,16.57,16.57,0,0,1-7.86,1.69,16.1,16.1,0,0,1-6.32-1.23,15.79,15.79,0,0,1-5.2-3.48,16.81,16.81,0,0,1-3.51-5.41,18.09,18.09,0,0,1-1.3-7,19,19,0,0,1,1.17-6.68,16.85,16.85,0,0,1,3.26-5.44,15.15,15.15,0,0,1,5-3.64,15.83,15.83,0,0,1,12.76,0,14.35,14.35,0,0,1,4.82,3.68,16.2,16.2,0,0,1,3,5.51,22,22,0,0,1,1,6.78v.73a8.18,8.18,0,0,1-.06,1Zm21.08-4a14.67,14.67,0,0,0-.95-4.18,11.58,11.58,0,0,0-2.05-3.49,9.2,9.2,0,0,0-3.17-2.39,10,10,0,0,0-4.27-.89,9.6,9.6,0,0,0-3.92.82,9.84,9.84,0,0,0-3.23,2.3A12.69,12.69,0,0,0,402.47,48a14,14,0,0,0-1.17,4.35Z"/><path id="Trazado_213" data-name="Trazado 213" class="cls-8" d="M272.85,71.41a16.74,16.74,0,0,1-6.76-1.36,17.34,17.34,0,0,1-5.38-3.66A16.5,16.5,0,0,1,257.17,61a17.13,17.13,0,0,1-1.27-6.55v-.13a17.24,17.24,0,0,1,1.27-6.58,16.69,16.69,0,0,1,8.95-9.15,17.29,17.29,0,0,1,19.09,3.66,16.56,16.56,0,0,1,3.54,5.38A17.13,17.13,0,0,1,290,54.19v.13a16.86,16.86,0,0,1-1.3,6.58,17.36,17.36,0,0,1-3.58,5.45,16.73,16.73,0,0,1-5.44,3.7A17.13,17.13,0,0,1,272.85,71.41ZM273,67a11.5,11.5,0,0,0,4.87-1,11.67,11.67,0,0,0,3.8-2.72,12.41,12.41,0,0,0,2.47-4,13.3,13.3,0,0,0,.89-4.87v-.13a13.4,13.4,0,0,0-.92-5,12.71,12.71,0,0,0-2.56-4.05,12.31,12.31,0,0,0-3.87-2.75,11.38,11.38,0,0,0-4.81-1,11.53,11.53,0,0,0-8.64,3.73,12.94,12.94,0,0,0-2.44,4,13.7,13.7,0,0,0-.88,4.9v.13a13.59,13.59,0,0,0,.91,5,12.46,12.46,0,0,0,2.54,4A12.17,12.17,0,0,0,268.17,66,11.38,11.38,0,0,0,273,67Z"/><path id="Trazado_214" data-name="Trazado 214" class="cls-8" d="M329.38,71.41a16.66,16.66,0,0,1-6.75-1.36,17.27,17.27,0,0,1-5.39-3.66A16.66,16.66,0,0,1,313.7,61a17.13,17.13,0,0,1-1.27-6.55v-.13a17.24,17.24,0,0,1,1.27-6.58,16.68,16.68,0,0,1,9-9.15,17.28,17.28,0,0,1,19.08,3.66,16.58,16.58,0,0,1,3.55,5.38,16.9,16.9,0,0,1,1.26,6.55v.13a16.68,16.68,0,0,1-1.29,6.58,17.53,17.53,0,0,1-3.58,5.45,16.73,16.73,0,0,1-5.44,3.7A17.18,17.18,0,0,1,329.38,71.41Zm.13-4.37a11.54,11.54,0,0,0,4.88-1,11.74,11.74,0,0,0,3.79-2.72,12.41,12.41,0,0,0,2.47-4,13.3,13.3,0,0,0,.89-4.87v-.13a13.4,13.4,0,0,0-.92-5,12.71,12.71,0,0,0-2.56-4.05,12.31,12.31,0,0,0-3.87-2.75,11.38,11.38,0,0,0-4.81-1,11.53,11.53,0,0,0-4.87,1,11.27,11.27,0,0,0-3.76,2.72,12.46,12.46,0,0,0-2.44,4,13.49,13.49,0,0,0-.89,4.9v.13a13.4,13.4,0,0,0,.92,5,12.46,12.46,0,0,0,2.54,4A11.94,11.94,0,0,0,324.71,66a11.31,11.31,0,0,0,4.8,1Z"/></g><path id="Trazado_215" data-name="Trazado 215" class="cls-3" d="M298.59,96.89V10.83h2.19V96.89Z"/><g id="Grupo_95" data-name="Grupo 95"><path id="Trazado_216" data-name="Trazado 216" class="cls-9" d="M324,80.91h.86l5.63,12.15h-1L328,89.68h-7.12l-1.53,3.38h-.94Zm3.58,8-3.17-7-3.19,7Z"/><path id="Trazado_217" data-name="Trazado 217" class="cls-9" d="M338.72,81h5.07a5.49,5.49,0,0,1,2,.31,4,4,0,0,1,1.41.87,3.17,3.17,0,0,1,.91,2.26v0a3.33,3.33,0,0,1-.26,1.36,3.38,3.38,0,0,1-.74,1,4,4,0,0,1-1.13.7,5.75,5.75,0,0,1-1.41.37l4,5.15H347.4l-3.85-5h-3.94v5h-.9Zm5,6.25a5.16,5.16,0,0,0,1.41-.19,3.37,3.37,0,0,0,1.13-.54,2.78,2.78,0,0,0,.73-.87,2.48,2.48,0,0,0,.27-1.17v0a2.34,2.34,0,0,0-.91-1.94,4.08,4.08,0,0,0-2.56-.7h-4.13v5.43Z"/><path id="Trazado_218" data-name="Trazado 218" class="cls-9" d="M366.32,91.89a6,6,0,0,1-1.75,1,6.56,6.56,0,0,1-2.15.36,5.91,5.91,0,0,1-2.49-.51A6.17,6.17,0,0,1,358,91.4a6.09,6.09,0,0,1-1.22-2,6.63,6.63,0,0,1-.43-2.37v0a6.6,6.6,0,0,1,.44-2.37,6.2,6.2,0,0,1,1.23-2,6.06,6.06,0,0,1,8.56-.26l.25.26a6.11,6.11,0,0,1,1.23,2,6.76,6.76,0,0,1,.43,2.36v0a6.73,6.73,0,0,1-.41,2.31,6,6,0,0,1-1.18,2l1.72,1.45-.64.69Zm-3.87.56a4.93,4.93,0,0,0,3.21-1.12l-2.35-2,.64-.71,2.31,2.11a5.49,5.49,0,0,0,1-1.67,5.59,5.59,0,0,0,.34-2v0a5.59,5.59,0,0,0-1.45-3.84A5.07,5.07,0,0,0,360.36,82a5.15,5.15,0,0,0-1.62,1.15,5.37,5.37,0,0,0-1.06,1.72,5.58,5.58,0,0,0-.38,2.1v0a5.9,5.9,0,0,0,.39,2.12,5.42,5.42,0,0,0,1.06,1.73,5.34,5.34,0,0,0,1.63,1.16,4.93,4.93,0,0,0,2.07.4Z"/><path id="Trazado_219" data-name="Trazado 219" class="cls-9" d="M382.05,93.25a5.59,5.59,0,0,1-2-.34,4.13,4.13,0,0,1-1.57-1,4.53,4.53,0,0,1-1-1.62A6.45,6.45,0,0,1,377.1,88V81h.9v7a4.66,4.66,0,0,0,1.08,3.32,3.83,3.83,0,0,0,3,1.16,4.46,4.46,0,0,0,1.66-.28,3.31,3.31,0,0,0,1.27-.82,3.76,3.76,0,0,0,.8-1.38A6,6,0,0,0,386.1,88V81H387v7a6.56,6.56,0,0,1-.36,2.28,4.79,4.79,0,0,1-1,1.67,4.37,4.37,0,0,1-1.56,1A5.48,5.48,0,0,1,382.05,93.25Z"/><path id="Trazado_220" data-name="Trazado 220" class="cls-9" d="M396.22,81h.91V93.06h-.9Z"/><path id="Trazado_221" data-name="Trazado 221" class="cls-9" d="M409.89,81.81h-4.21V81H415v.81h-4.21V93.07h-.89Z"/><path id="Trazado_222" data-name="Trazado 222" class="cls-9" d="M423.44,81H432v.81h-7.69v4.78h6.91v.81h-6.91v4.86h7.77v.81h-8.67Z"/><path id="Trazado_223" data-name="Trazado 223" class="cls-9" d="M446.17,93.27a5.86,5.86,0,0,1-5.55-3.78,6.71,6.71,0,0,1-.45-2.43v0a6.38,6.38,0,0,1,.46-2.41,6.18,6.18,0,0,1,1.26-2,5.83,5.83,0,0,1,4.32-1.84,7.15,7.15,0,0,1,1.46.14,5.54,5.54,0,0,1,1.21.4,6.2,6.2,0,0,1,1.06.61,10.09,10.09,0,0,1,.95.78l-.64.66a9.06,9.06,0,0,0-.82-.71,4.89,4.89,0,0,0-.93-.56,5.14,5.14,0,0,0-2.32-.51,4.79,4.79,0,0,0-2,.41,4.85,4.85,0,0,0-1.61,1.15,5.36,5.36,0,0,0-1.07,1.71A5.94,5.94,0,0,0,441.1,87v0a5.81,5.81,0,0,0,.4,2.14,5.43,5.43,0,0,0,1.08,1.72A4.85,4.85,0,0,0,444.19,92a4.67,4.67,0,0,0,2,.42,5,5,0,0,0,2.27-.48,7.18,7.18,0,0,0,1.88-1.41l.6.59a10.07,10.07,0,0,1-1,.85,5.76,5.76,0,0,1-1.09.66,5.43,5.43,0,0,1-1.25.43A6.55,6.55,0,0,1,446.17,93.27Z"/><path id="Trazado_224" data-name="Trazado 224" class="cls-9" d="M462.49,81.81h-4.2V81h9.29v.81h-4.21V93.07h-.89Z"/><path id="Trazado_225" data-name="Trazado 225" class="cls-9" d="M481.55,93.27a5.86,5.86,0,0,1-4.39-1.87,6.11,6.11,0,0,1-1.23-2,6.85,6.85,0,0,1-.43-2.37v0a6.6,6.6,0,0,1,.44-2.37,6.06,6.06,0,0,1,1.24-2,5.78,5.78,0,0,1,1.91-1.37A6,6,0,0,1,486,82.66a6.11,6.11,0,0,1,1.23,2,6.53,6.53,0,0,1,.43,2.36s0,0,0,0a6.6,6.6,0,0,1-.44,2.37,6.2,6.2,0,0,1-1.23,2,5.68,5.68,0,0,1-1.92,1.37A6,6,0,0,1,481.55,93.27Zm0-.81a4.91,4.91,0,0,0,3.68-1.58,5.33,5.33,0,0,0,1.06-1.71,6.06,6.06,0,0,0,.38-2.11v0a5.85,5.85,0,0,0-.39-2.11,5.29,5.29,0,0,0-1.07-1.72A5,5,0,0,0,483.62,82a5.2,5.2,0,0,0-4.13,0,5,5,0,0,0-1.62,1.16,5.7,5.7,0,0,0-1.06,1.71,5.83,5.83,0,0,0-.37,2.11v0a5.59,5.59,0,0,0,1.45,3.84A5.06,5.06,0,0,0,479.52,92a4.91,4.91,0,0,0,2.07.41Z"/><path id="Trazado_226" data-name="Trazado 226" class="cls-9" d="M500.49,93.23a6.64,6.64,0,0,1-2.61-.48,8.12,8.12,0,0,1-2.26-1.44l.59-.68a8.45,8.45,0,0,0,1,.8,5.33,5.33,0,0,0,1,.57,5.7,5.7,0,0,0,1.09.32,6.43,6.43,0,0,0,1.24.12,4.33,4.33,0,0,0,1.24-.18,3,3,0,0,0,1-.5,2.39,2.39,0,0,0,.62-.76,2.12,2.12,0,0,0,.23-1v0a2.47,2.47,0,0,0-.15-.86,1.59,1.59,0,0,0-.53-.69,4.22,4.22,0,0,0-1-.57,11.09,11.09,0,0,0-1.69-.45,11.66,11.66,0,0,1-1.86-.53,4.63,4.63,0,0,1-1.27-.7,2.55,2.55,0,0,1-.72-.94,3.23,3.23,0,0,1-.22-1.23v0a2.72,2.72,0,0,1,.28-1.25,3.31,3.31,0,0,1,.81-1,3.69,3.69,0,0,1,1.23-.67,4.53,4.53,0,0,1,1.55-.24,6.14,6.14,0,0,1,2.25.36,6.53,6.53,0,0,1,1.87,1.1l-.56.7a5.27,5.27,0,0,0-3.61-1.36,4.12,4.12,0,0,0-1.21.18,3,3,0,0,0-.93.5,2.06,2.06,0,0,0-.59.72,1.9,1.9,0,0,0-.21.88v0a2.88,2.88,0,0,0,.14.87,1.77,1.77,0,0,0,.54.7,3.81,3.81,0,0,0,1.07.57,13.91,13.91,0,0,0,1.76.48,7,7,0,0,1,3,1.21,2.63,2.63,0,0,1,.92,2.11v0a2.86,2.86,0,0,1-.3,1.34,3.21,3.21,0,0,1-.83,1,3.78,3.78,0,0,1-1.25.67A5.07,5.07,0,0,1,500.49,93.23Z"/></g></g></g></g></g></svg>