<svg xmlns="http://www.w3.org/2000/svg" viewBox="0 0 637.04 200.76"><defs><style>.cls-1{fill:#005270;}.cls-2{fill:#b6935b;}.cls-3{fill:#c8ae80;}</style></defs><g id="Capa_2" data-name="Capa 2"><g id="Capa_1-2" data-name="Capa 1"><ellipse class="cls-1" cx="78.64" cy="88.97" rx="64.17" ry="80.97"/><path class="cls-2" d="M152.18,57.59a92,92,0,0,0-15.5-28.32A85.37,85.37,0,0,0,125.16,17.5a76.11,76.11,0,0,0-13.85-9.31A72.86,72.86,0,0,0,95.54,2.13h0A68.66,68.66,0,0,0,78.64,0h0a68.66,68.66,0,0,0-16.9,2.13h0A72.86,72.86,0,0,0,46,8.19,76.11,76.11,0,0,0,32.12,17.5,85.45,85.45,0,0,0,20.59,29.27,92.2,92.2,0,0,0,5.1,57.59a98.66,98.66,0,0,0,.09,62.89,91.9,91.9,0,0,0,15.57,28.24,86.17,86.17,0,0,0,11.53,11.71,76.36,76.36,0,0,0,13.83,9.25,72.77,72.77,0,0,0,15.71,6,68.81,68.81,0,0,0,16.8,2.11h0a68.89,68.89,0,0,0,16.81-2.11,73.17,73.17,0,0,0,15.71-6A75.93,75.93,0,0,0,125,160.43a85,85,0,0,0,11.53-11.71,91.9,91.9,0,0,0,15.57-28.24,98.57,98.57,0,0,0,.1-62.89Zm-8.12,61.08a94,94,0,0,1-5.25,14.15A87.29,87.29,0,0,1,131.25,146a77.51,77.51,0,0,1-10,11.7,67.85,67.85,0,0,1-12.41,9.42,61.39,61.39,0,0,1-14.49,6.19,57.66,57.66,0,0,1-31.48,0,61.39,61.39,0,0,1-14.49-6.19A67.85,67.85,0,0,1,36,157.71,77.51,77.51,0,0,1,26,146a87.29,87.29,0,0,1-7.56-13.19,94.07,94.07,0,0,1-5.26-14.15,108.41,108.41,0,0,1,.09-59.24,93.38,93.38,0,0,1,5.3-14.11,87,87,0,0,1,7.59-13.14,78.28,78.28,0,0,1,10-11.65,68.08,68.08,0,0,1,12.38-9.35A61.58,61.58,0,0,1,63,5,57.3,57.3,0,0,1,94.29,5a61.48,61.48,0,0,1,14.44,6.14,68.43,68.43,0,0,1,12.38,9.35,78.28,78.28,0,0,1,10,11.65,87.84,87.84,0,0,1,7.59,13.14A92.28,92.28,0,0,1,144,59.43,108,108,0,0,1,148.14,89,108.92,108.92,0,0,1,144.06,118.67Z"/><circle class="cls-2" cx="110.44" cy="40.31" r="2.48"/><path class="cls-2" d="M101.18,42.68C108,29.93,96.86,24.6,94.31,24.6,98.09,30.86,92.57,39.68,84,43.1,92.15,41.37,97,41.77,101.18,42.68Z"/><path class="cls-2" d="M219.89,48.45q0-9.57-3.17-12.86t-11.9-3.28h-3.23v56h7.54v2.15H177.92V88.28h7.53v-56h-3.23q-8.61,0-11.78,3.28t-3.18,12.86h-2.15V30.16H222V48.45Z"/><path class="cls-2" d="M254.22,90.24a28.79,28.79,0,0,1-18.51-6.67q-8.28-6.67-8.29-18.94a27.29,27.29,0,0,1,2.43-11.74,21.17,21.17,0,0,1,6.45-8.18A31.11,31.11,0,0,1,245,40.14a29.42,29.42,0,0,1,9.47-1.56A29.91,29.91,0,0,1,264,40.14a31,31,0,0,1,8.72,4.57,21.67,21.67,0,0,1,6.51,8.18c1.65,3.45,2.48,6.12,2.48,11.63A25.85,25.85,0,0,1,279.19,76a21.61,21.61,0,0,1-6.56,8.08A29.93,29.93,0,0,1,254.22,90.24Zm-8-7.59a8.29,8.29,0,0,0,8.18,5.44q5.81,0,8.29-5.49t2.47-18.14q0-12.64-2.47-18.19t-8.29-5.54q-5.82,0-8.18,5.54t-2.37,18.25Q243.89,77.22,246.26,82.65Z"/><path class="cls-2" d="M316.11,90.24H289.2V88.09h5.38V42H289.2V39.83h21.53V52.64a19.94,19.94,0,0,1,3.5-8.61,12.21,12.21,0,0,1,5.59-4.41,17.82,17.82,0,0,1,5.92-1.08,15.1,15.1,0,0,1,5.49,1,7.05,7.05,0,0,1,3.93,4.09,7.93,7.93,0,0,1,.11,6.14,7.52,7.52,0,0,1-4.15,4.36,6.89,6.89,0,0,1-5.43.32,7.09,7.09,0,0,1-3.55-2.64,12.08,12.08,0,0,1-1.51-3.17c-.72-2.66-1.69-4-2.91-4s-2.87,2.35-4.52,7a47.3,47.3,0,0,0-2.47,15.35v21h5.38Z"/><path class="cls-2" d="M368.09,90.24H341.18V88.09h5.39V42h-5.39V39.83h21.53V52.64a20.06,20.06,0,0,1,3.5-8.61,12.21,12.21,0,0,1,5.59-4.41,17.82,17.82,0,0,1,5.92-1.08,15.1,15.1,0,0,1,5.49,1,7.05,7.05,0,0,1,3.93,4.09,7.93,7.93,0,0,1,.11,6.14,7.54,7.54,0,0,1-4.14,4.36,6.91,6.91,0,0,1-5.44.32,7.13,7.13,0,0,1-3.55-2.64,12.08,12.08,0,0,1-1.51-3.17c-.72-2.66-1.68-4-2.9-4s-2.87,2.35-4.52,7a47,47,0,0,0-2.48,15.35v21h5.38Z"/><path class="cls-2" d="M440.74,67.64h-32.5Q409.3,86.59,423,86.58a24.48,24.48,0,0,0,8.34-1.72A13.78,13.78,0,0,0,438.16,80l1.5,1.07q-2.37,4-8.07,6.57a27.36,27.36,0,0,1-11.35,2.58,42.14,42.14,0,0,1-10.17-1.13,30.6,30.6,0,0,1-8.83-3.82,17.79,17.79,0,0,1-6.73-8.07,31.71,31.71,0,0,1-2.42-13q0-13,7.21-19.31a25.67,25.67,0,0,1,17.49-6.3,23.16,23.16,0,0,1,17.12,6.89Q440.73,52.36,440.74,67.64Zm-32.61-2.15h17.54a64,64,0,0,0-2.1-17.33q-2.1-7.42-6.72-7.43t-6.68,7.16a60,60,0,0,0-2,16.41Z"/><path class="cls-3" d="M274.09,96.45h-6.64v66.68h6.64v2.56H240.86v-2.56h6.64V101.19l-26.32,64.58h-3.06L188.61,99.4v63.73h10.63v2.56H178v-2.56h8V96.45h-8.11V93.89h29.65L228.23,142,247.5,93.89h26.59Z"/><path class="cls-3" d="M329.27,165.71v-8.14a19,19,0,0,1-7.91,5.83,28.56,28.56,0,0,1-11.63,2.37q-23.67,0-23.67-24.74V108h-6.65v-2.57H306v38.47q0,9.1,2.79,13t8.38,3.85q7.44,0,12.1-7.7V108h-6.65v-2.57h26.59v57.77h6.65v2.56Z"/><path class="cls-3" d="M435,163.21h6.65v2.56H408.37v-2.56H415v-35.9q0-9.11-2.79-13t-8.38-3.85q-7.58,0-12.09,7.69v45h6.64v2.56H365.16v-2.56h6.65V108h-6.65v-2.57h26.6v8a19.63,19.63,0,0,1,7.91-5.71,28.52,28.52,0,0,1,11.63-2.37q23.65,0,23.66,24.75Z"/><path class="cls-3" d="M477.51,163.21h6.64v2.56H450.92v-2.56h6.64V108h-5.31v-2.57h25.26Z"/><path class="cls-3" d="M492.13,135.13q0-15.13,9.17-22.95t23.34-7.83q14.16,0,21.07,6.86t4.92,14.17a9,9,0,0,1-4.45,5.84,10.19,10.19,0,0,1-7.38,1q-8.38-1.92-8.38-9.36a52.33,52.33,0,0,1,.47-5.84,33,33,0,0,0,.33-5.7,6,6,0,0,0-.8-2.82q-1.33-2.17-6.25-1.67-12,1.8-12,28.27t19.54,26.48a20.62,20.62,0,0,0,9.17-2.3,18,18,0,0,0,6.92-5.52L549.7,155a21.54,21.54,0,0,1-9.17,7.83,31.24,31.24,0,0,1-13.7,2.94Q492.14,165.77,492.13,135.13Z"/><path class="cls-3" d="M630.13,163.21h6.65v2.56H603.54v-2.56h6.65v-35.9q0-9.11-2.79-13T599,110.51q-7.57,0-12.1,7.69v45h6.65v2.56H560.33v-2.56H567V82.43h-6.65V79.86h26.59v33.6a18.58,18.58,0,0,1,7.85-5.77,29,29,0,0,1,11.7-2.31q23.65,0,23.66,24.75Z"/><path class="cls-2" d="M478.7,79.21a10.63,10.63,0,0,1-3.39,8,11.43,11.43,0,0,1-8.24,3.27,11.65,11.65,0,0,1-8.31-3.27,10.55,10.55,0,0,1-3.46-8,10.78,10.78,0,0,1,3.46-8,11.54,11.54,0,0,1,8.31-3.33,11.33,11.33,0,0,1,8.24,3.33A10.86,10.86,0,0,1,478.7,79.21Z"/><path class="cls-2" d="M122,69.26V67.6h-4.6c-1.13,6.07-7.66,11.08-9.55,11.79a47.68,47.68,0,0,0-1.28-11.79h-1.18l-12,31.14L80.4,67.6H66.94v43.85h1.66V71.17L87,114.93H89l16.44-42.6v40.11h-4.15v1.66H122v-1.66h-4.16V69.26Z"/><path class="cls-2" d="M102.21,118.24a17,17,0,0,1,.87,2.32,18,18,0,0,1,.61,5.5,22.48,22.48,0,0,1-3.7,11.09,26.31,26.31,0,0,1-9,8.48A24.49,24.49,0,0,1,78.81,149a36,36,0,0,1-12.65-2.23,36.4,36.4,0,0,1-3.58-1.54,27.49,27.49,0,0,1-3-2.78,17.55,17.55,0,0,1-2.81-3.83,8,8,0,0,1-1-4.38,7.22,7.22,0,0,1,1.75-4,5.93,5.93,0,0,1,3-1.66,5,5,0,0,1,3.37.54,5.26,5.26,0,0,1,2.33,2.59,4.93,4.93,0,0,1,.37,1.74,2,2,0,1,0-.92,3,1.87,1.87,0,0,0,1.09-1l0,0a5.65,5.65,0,0,0,.29-4.09,6.12,6.12,0,0,0-6.82-4.15,7.38,7.38,0,0,0-3.77,2l0,0,0,0A9.89,9.89,0,0,0,55,131.5a7.83,7.83,0,0,0-.65,2.6,9.16,9.16,0,0,0,1.32,5.05,16.69,16.69,0,0,0,3.2,3.92l.16.14a41.09,41.09,0,0,1-4-2.91,42.77,42.77,0,0,1-8.51-9.56A51,51,0,0,1,41,119.28a62.68,62.68,0,0,1-1.72-6.13c-.46-2.07-.79-4.17-1-6.27a68.38,68.38,0,0,1-.33-12.71,48.15,48.15,0,0,1,7.91-23.35L43,71.19c-2.29,2.2-10.19,15.55-7.8,36.08a56.9,56.9,0,0,0,3.38,12.9,48.89,48.89,0,0,0,15.79,21,43.21,43.21,0,0,0,5.55,3.56,41.93,41.93,0,0,0,6,2.69,41.14,41.14,0,0,0,12.9,2.41,36.44,36.44,0,0,0,13.1-2.23A46.15,46.15,0,0,0,104,141a48.49,48.49,0,0,0,10.38-10.69,51.38,51.38,0,0,0,4.16-7c.79-1.6,1.5-3.28,2.17-5Z"/><path class="cls-2" d="M113.6,51.8c-8.16-7.44-26.86-9.61-48.88.36A49.15,49.15,0,0,0,53.31,59h4.17c.84-.6,1.69-1.19,2.56-1.74a48.87,48.87,0,0,1,5.58-3.09,62.28,62.28,0,0,1,22.32-5.57c10.54.22,22.27,5.09,22.1,25.09C113.07,72.53,122,59.55,113.6,51.8Z"/><path class="cls-2" d="M51.37,65.22v46.09h-6.2v1.78H70.88v-1.78H64.67V65.22h14.5l-.74-1.77H34.62V76.74C37.18,62.93,51.37,65.22,51.37,65.22Z"/><path class="cls-3" d="M299.63,182.89H301v3.91h0a1.75,1.75,0,0,1,.27-.28,2.44,2.44,0,0,1,.39-.28,3,3,0,0,1,.54-.21A2.84,2.84,0,0,1,303,186a2.59,2.59,0,0,1,1.09.23,2.56,2.56,0,0,1,.86.62,2.86,2.86,0,0,1,.55.93,3.49,3.49,0,0,1,0,2.3,2.68,2.68,0,0,1-.54.93,2.55,2.55,0,0,1-.88.62,2.8,2.8,0,0,1-1.14.23,2.57,2.57,0,0,1-1.11-.24,1.75,1.75,0,0,1-.81-.74h0v.84h-1.32Zm4.62,6a1.67,1.67,0,0,0-.11-.63,1.51,1.51,0,0,0-.32-.53,1.59,1.59,0,0,0-.52-.37,1.75,1.75,0,0,0-1.37,0,1.59,1.59,0,0,0-.52.37,1.51,1.51,0,0,0-.32.53,1.86,1.86,0,0,0,0,1.26,1.51,1.51,0,0,0,.32.53,1.59,1.59,0,0,0,.52.37,1.75,1.75,0,0,0,1.37,0,1.59,1.59,0,0,0,.52-.37,1.51,1.51,0,0,0,.32-.53,1.67,1.67,0,0,0,.11-.63"/><path class="cls-3" d="M306.19,186.09h1.54l1.55,3.87h0l1.39-3.87h1.45l-2.64,6.77a3.71,3.71,0,0,1-.33.69,1.89,1.89,0,0,1-.42.5,1.54,1.54,0,0,1-.58.31,3,3,0,0,1-.79.09,3.83,3.83,0,0,1-1.07-.14l.17-1.25.35.1a1.47,1.47,0,0,0,.36,0,1.69,1.69,0,0,0,.43,0,.83.83,0,0,0,.3-.14.75.75,0,0,0,.2-.26c.06-.1.11-.23.18-.38l.26-.66Z"/><path class="cls-3" d="M495.58,193.58l2.69-4.86h1.79l-3.37,6,4.24,4.46h-2.34l-2.8-3a10.1,10.1,0,0,1-2.5,2.44,5.78,5.78,0,0,1-3.31.92,6.3,6.3,0,0,1-2.23-.39,5.25,5.25,0,0,1-1.81-1.09,5.32,5.32,0,0,1-1.22-1.72,5.43,5.43,0,0,1-.44-2.24,4.63,4.63,0,0,1,.36-1.9,5.39,5.39,0,0,1,1-1.46,8.1,8.1,0,0,1,1.36-1.15c.51-.34,1-.68,1.58-1l-.8-1a8.11,8.11,0,0,1-.73-1.07,7,7,0,0,1-.53-1.15,3.7,3.7,0,0,1-.21-1.23,4.09,4.09,0,0,1,.38-1.79,4,4,0,0,1,1-1.34,4.92,4.92,0,0,1,1.51-.83,5.63,5.63,0,0,1,1.78-.29,4.51,4.51,0,0,1,2.95,1.1,3.75,3.75,0,0,1,1.28,2.86,3.92,3.92,0,0,1-.36,1.74,4.63,4.63,0,0,1-1,1.32,7.06,7.06,0,0,1-1.33,1c-.5.3-1,.59-1.54.88Zm-6-3.93c-.43.24-.85.51-1.26.79a7.32,7.32,0,0,0-1.13.94,4.35,4.35,0,0,0-.84,1.16A3.29,3.29,0,0,0,486,194a3.77,3.77,0,0,0,.33,1.61,3.7,3.7,0,0,0,.9,1.23,3.81,3.81,0,0,0,1.34.79,4.77,4.77,0,0,0,1.65.28,4,4,0,0,0,1.39-.24,4.91,4.91,0,0,0,1.2-.63,6.78,6.78,0,0,0,1-.91,8.41,8.41,0,0,0,.87-1.1Zm1.29-8.21a3,3,0,0,0-2,.72,2.46,2.46,0,0,0-.82,1.92,2.67,2.67,0,0,0,.2,1,5.66,5.66,0,0,0,.5,1,10.44,10.44,0,0,0,.66.9l.65.76c.37-.19.76-.4,1.16-.63a6,6,0,0,0,1.11-.79,4,4,0,0,0,.83-1,2.55,2.55,0,0,0,.33-1.31,2.32,2.32,0,0,0-.74-1.8,2.58,2.58,0,0,0-1.87-.7"/><path class="cls-3" d="M367,191a26.43,26.43,0,0,1-.84,2.52,3.79,3.79,0,0,1-1.67,2,6.1,6.1,0,0,1-2.24,1.4,8.28,8.28,0,0,1-2.8.56,10.07,10.07,0,0,1-3.08-.56,6.61,6.61,0,0,1-2.52-1.68,9.1,9.1,0,0,1-1.67-2.8,14,14,0,0,1,0-7.83,4.7,4.7,0,0,1,1.67-2.8,6.1,6.1,0,0,1,2.52-2,6.57,6.57,0,0,1,3.36-.56,8.28,8.28,0,0,1,2.8.56,6,6,0,0,1,2.23,1.4,5,5,0,0,1,1.4,2,8.18,8.18,0,0,1,.56,2.52h-3.63a6.1,6.1,0,0,0-1.4-2.24,3.18,3.18,0,0,0-2.24-.84,4,4,0,0,0-3.36,1.68,9.5,9.5,0,0,0,0,8.95,3.22,3.22,0,0,0,3.08,1.68,3.42,3.42,0,0,0,2.52-.84,5.41,5.41,0,0,0,1.4-2.52H367Z"/><path class="cls-3" d="M374,197.12a8.28,8.28,0,0,1-2.8-.56,5,5,0,0,1-2-1.4,6.1,6.1,0,0,1-1.4-2.24,7.26,7.26,0,0,1,0-5.59,9.82,9.82,0,0,1,1.4-2.24,5,5,0,0,1,2-1.4,7.28,7.28,0,0,1,5.6,0,5.06,5.06,0,0,1,2,1.4,8.51,8.51,0,0,1,1.4,2,7.26,7.26,0,0,1,0,5.59,7.37,7.37,0,0,1-3.35,3.36A3.33,3.33,0,0,1,374,197.12Zm0-2.8c2,0,3.07-1.4,3.07-3.92s-1.11-3.91-3.07-3.91-3.08,1.4-3.08,3.91C370.9,193.2,371.74,194.32,374,194.32Z"/><path class="cls-3" d="M389.64,196.84v-7.55a3.34,3.34,0,0,0-.55-2,2.37,2.37,0,0,0-1.68-.56c-1.68,0-2.52.84-2.52,2.8v7.27h-3.36V184.25h3.08v2a2.52,2.52,0,0,1,1.68-1.68,5.59,5.59,0,0,1,2.52-.56,3.53,3.53,0,0,1,1.67.28c.56.28.84.56,1.4.84a6.12,6.12,0,0,1,.84,1.4,3.55,3.55,0,0,1,.28,1.68v8.67Z"/><path class="cls-3" d="M401.67,188.45h3.08v3.63a4.76,4.76,0,0,1-.28,2l-.84,1.68a2.57,2.57,0,0,1-1.68,1.12,5.38,5.38,0,0,1-2.23.28,5.46,5.46,0,0,1-2.24-.28,5.86,5.86,0,0,1-1.68-1.12c-.28-.56-.84-1.12-.84-1.68a4.76,4.76,0,0,1-.28-2V180.89H398v3.36h7v2.24h-7v5.31a4,4,0,0,0,.56,2c.28.56.84.56,1.4.56a2.14,2.14,0,0,0,1.4-.56,4.16,4.16,0,0,0,.55-2v-3.35Z"/><path class="cls-3" d="M406.15,182.85v-3.08h3.36v3.08Zm0,14V184.25h3.36v12.59Z"/><path class="cls-3" d="M419,196.84v-7.55a3.26,3.26,0,0,0-.56-2,2.37,2.37,0,0,0-1.68-.56c-1.68,0-2.52.84-2.52,2.8v7.27h-3.35V184.25H414v2a2.52,2.52,0,0,1,1.68-1.68,5.59,5.59,0,0,1,2.52-.56,3.55,3.55,0,0,1,1.68.28c.56.28.84.56,1.4.84a6.12,6.12,0,0,1,.84,1.4,3.55,3.55,0,0,1,.28,1.68v8.67Z"/><path class="cls-3" d="M426.85,191.52a3.18,3.18,0,0,0,.84,2.24,2.54,2.54,0,0,0,2,.84,2.1,2.1,0,0,0,1.4-.28,3.87,3.87,0,0,0,.84-1.12h3.36a5.88,5.88,0,0,1-2,3.08,4.89,4.89,0,0,1-3.36,1.12c-4.19,0-6.43-2.24-6.43-7a6.92,6.92,0,0,1,.28-2.51,4.51,4.51,0,0,1,1.12-2,5.06,5.06,0,0,1,2-1.4,8.18,8.18,0,0,1,2.52-.56,5.22,5.22,0,0,1,4.48,2c1.12,1.12,1.4,3.08,1.4,5.59Zm5.32-2.23c0-.56,0-.84-.28-1.12s-.28-.56-.56-.84-.56-.28-.84-.56c-.28,0-.56-.28-.84-.28a2.42,2.42,0,0,0-1.68.84,2.54,2.54,0,0,0-.84,2Z"/><path class="cls-3" d="M444.76,196.84v-7.55a3.26,3.26,0,0,0-.56-2,2.37,2.37,0,0,0-1.68-.56c-1.68,0-2.52.84-2.52,2.8v7.27h-3.35V184.25h3.07v2a2.52,2.52,0,0,1,1.68-1.68,5.59,5.59,0,0,1,2.52-.56,3.55,3.55,0,0,1,1.68.28c.56.28.84.56,1.4.84a6.12,6.12,0,0,1,.84,1.4,3.55,3.55,0,0,1,.28,1.68v8.67Z"/><path class="cls-3" d="M456.79,188.45h3.08v3.63a4.76,4.76,0,0,1-.28,2l-.84,1.68a2.57,2.57,0,0,1-1.68,1.12,9.1,9.1,0,0,1-4.48,0,5.86,5.86,0,0,1-1.68-1.12c-.27-.56-.83-1.12-.83-1.68a4.76,4.76,0,0,1-.28-2V180.89h3.35v3.36h7v2.24h-7v5.31a4,4,0,0,0,.56,2c.28.56.84.56,1.4.56a2.14,2.14,0,0,0,1.4-.56,4,4,0,0,0,.56-2v-3.35Z"/><path class="cls-3" d="M468.82,188.17a2.14,2.14,0,0,0-.56-1.4c-.28-.28-.84-.28-1.68-.28a2.1,2.1,0,0,0-1.4.28c-.28.28-.56.56-.56.84s.28.56.56.84.84.28,1.68.56a17.84,17.84,0,0,1,2,.56c.56.28,1.12.28,1.68.55a5.86,5.86,0,0,1,1.68,1.12,3.94,3.94,0,0,1-.84,5c-.84.84-2.24,1.12-4.2,1.12a7.05,7.05,0,0,1-4.47-1.12A3.87,3.87,0,0,1,461,193.2h3.35a2.14,2.14,0,0,0,.56,1.4,4,4,0,0,0,2,.56,3.55,3.55,0,0,0,1.68-.28c.56-.28.56-.56.56-1.12s-.28-.84-.56-.84c-.28-.28-.84-.28-1.4-.56a14.2,14.2,0,0,0-2.52-.56L463,191a1.86,1.86,0,0,1-1.12-1.39,3.55,3.55,0,0,1-.28-1.68,2.1,2.1,0,0,1,.28-1.4,3.87,3.87,0,0,1,.84-1.12,8.87,8.87,0,0,1,1.67-.84,6.21,6.21,0,0,1,2.52-.28c2,0,3.08.28,3.92,1.12a4,4,0,0,1,1.4,3.08h-3.36Z"/><path class="cls-3" d="M326.7,178.37a10.58,10.58,0,0,0,5.31-2,15.05,15.05,0,0,1,5.88-2.24c1.12,0,2-.28,2.51,0a14,14,0,0,0-7.55-2.24,13.81,13.81,0,0,0-11.47,5.87C322.5,178.37,323.9,178.65,326.7,178.37Z"/><path class="cls-3" d="M328.09,183.13a12.43,12.43,0,0,0,5-.56,10.21,10.21,0,0,1,5.6-.84,9.58,9.58,0,0,1,5.31,2,7.87,7.87,0,0,0,3.08,1.4,14.16,14.16,0,0,0-4.2-9,13.4,13.4,0,0,0-5-.28,10.68,10.68,0,0,0-5.32,1.95,15.06,15.06,0,0,1-5.87,2.24h-2a9.35,9.35,0,0,1-4.2-.84h-.28a1,1,0,0,1-.28.56,9.43,9.43,0,0,1,3.36,1.68A8.49,8.49,0,0,0,328.09,183.13Z"/><path class="cls-3" d="M326.7,191a10.58,10.58,0,0,0,5.31-2,15.05,15.05,0,0,1,5.88-2.24,13.06,13.06,0,0,1,6.15.56,10.07,10.07,0,0,0,3.08.56v-1.4a12.71,12.71,0,0,1-3.92-1.68,8.49,8.49,0,0,0-4.75-1.68,12.43,12.43,0,0,0-5,.56,10.21,10.21,0,0,1-5.6.84,9.58,9.58,0,0,1-5.31-2,7.87,7.87,0,0,0-3.08-1.4,15.86,15.86,0,0,0-.84,5,16.39,16.39,0,0,0,.56,3.64,23,23,0,0,1,2.24.55C322.5,191,323.9,191.24,326.7,191Z"/><path class="cls-3" d="M333.13,196.28a10.19,10.19,0,0,1-5.59.84,9.58,9.58,0,0,1-5.32-2c-.56-.28-.84-.56-1.4-.84a14.37,14.37,0,0,0,21.54,2.8,10.38,10.38,0,0,0-4.19-1.4A12.43,12.43,0,0,0,333.13,196.28Z"/><path class="cls-3" d="M343.2,189a12.61,12.61,0,0,0-10.91,1.39,15.06,15.06,0,0,1-5.87,2.24h-2a9.35,9.35,0,0,1-4.2-.84c-.56,0-.84-.28-1.4-.28a1,1,0,0,0,.28.56,9.43,9.43,0,0,1,3.36,1.68,8.5,8.5,0,0,0,4.76,1.68,12.4,12.4,0,0,0,5-.56,10.21,10.21,0,0,1,5.6-.84,13,13,0,0,1,5,1.68,13.37,13.37,0,0,0,3.36-6.15A11.91,11.91,0,0,1,343.2,189Z"/><polygon class="cls-3" points="509.2 180.59 511.78 180.59 520 196.13 528.22 180.59 530.8 180.59 521.4 198.28 518.6 198.28 509.2 180.59"/><polygon class="cls-3" points="532.36 180.59 549.01 180.59 549.01 182.55 534.65 182.55 534.65 188.19 548.45 188.19 548.45 190.14 534.65 190.14 534.65 196.32 549.1 196.32 549.1 198.28 532.36 198.28 532.36 180.59"/><polygon class="cls-3" points="551.28 180.59 554.7 180.59 570.22 196.13 570.22 180.59 572.52 180.59 572.52 198.28 569.1 198.28 553.57 182.74 553.57 198.28 551.28 198.28 551.28 180.59"/><polygon class="cls-3" points="582.41 182.55 573.84 182.55 573.84 180.59 593.28 180.59 593.28 182.55 584.71 182.55 584.71 198.28 582.41 198.28 582.41 182.55"/><path class="cls-3" d="M594.75,180.59h2.3v13.22c0,1.71.56,2.71,3.67,2.71h8c3.12,0,3.68-1,3.68-2.71V180.59h2.3v13.24c0,3.59-1.73,4.65-6,4.65h-7.83c-4.31,0-6-1.06-6-4.65Z"/><path class="cls-3" d="M617.55,192.71h2.16V194c0,1.74.89,2.57,3.75,2.57h7.12c3.32,0,4.31-.73,4.31-3.27,0-2.23-.85-2.79-3.7-2.79h-4.36c-7,0-9.3-.44-9.3-5.13,0-4,2.3-4.93,7-4.93h4.94c5.69,0,7.12,1.51,7.12,4.66v.61h-2.16c0-2.81-.33-3.32-6.34-3.32h-2.44c-4.43,0-6,.24-6,3.15,0,2.1.64,2.81,4.22,2.81h6.79c4.47,0,6.35,1.34,6.35,4.35v1.15c0,4.35-3.42,4.67-6.82,4.67h-6.37c-3.34,0-6.3-.62-6.3-4.47Z"/></g></g></svg>