<svg xmlns="http://www.w3.org/2000/svg" viewBox="0 0 662.01 184.85"><defs><style>.cls-1{fill:#005270;}.cls-2{fill:#b09060;}.cls-3{fill:#b19160;}.cls-4{fill:#cbb183;}.cls-5{fill:#cdac7d;}</style></defs><g id="Capa_2" data-name="Capa 2"><g id="Capa_1-2" data-name="Capa 1"><ellipse class="cls-1" cx="81.75" cy="92.49" rx="66.72" ry="84.18"/><path class="cls-2" d="M158.21,59.88A95.77,95.77,0,0,0,142.1,30.43a88.71,88.71,0,0,0-12-12.23,79.39,79.39,0,0,0-14.4-9.68,75.09,75.09,0,0,0-16.39-6.3h0A71.63,71.63,0,0,0,81.76,0h0A71.63,71.63,0,0,0,64.18,2.21h0a75.09,75.09,0,0,0-16.39,6.3,79.39,79.39,0,0,0-14.4,9.68,88.14,88.14,0,0,0-12,12.23A95.77,95.77,0,0,0,5.3,59.88a102.55,102.55,0,0,0,.1,65.38,95.37,95.37,0,0,0,16.19,29.35,88.92,88.92,0,0,0,12,12.18A79.25,79.25,0,0,0,48,176.4a75.19,75.19,0,0,0,16.33,6.26,71.84,71.84,0,0,0,17.47,2.19h0a71.84,71.84,0,0,0,17.47-2.19,75.19,75.19,0,0,0,16.33-6.26,79.25,79.25,0,0,0,14.38-9.61,88.92,88.92,0,0,0,12-12.18,95.37,95.37,0,0,0,16.19-29.35,102.55,102.55,0,0,0,.1-65.38Zm-8.44,63.5a97,97,0,0,1-5.46,14.7,91.22,91.22,0,0,1-7.86,13.72A80.94,80.94,0,0,1,126.08,164a70.37,70.37,0,0,1-12.9,9.79,63.36,63.36,0,0,1-15.06,6.43,59.87,59.87,0,0,1-32.73,0,63.6,63.6,0,0,1-15.07-6.43A70.3,70.3,0,0,1,37.43,164,80.36,80.36,0,0,1,27.06,151.8a91.22,91.22,0,0,1-7.86-13.72,97,97,0,0,1-5.46-14.7,112.84,112.84,0,0,1,.09-61.6,96.38,96.38,0,0,1,5.51-14.66,90.42,90.42,0,0,1,7.89-13.67A80.49,80.49,0,0,1,37.6,21.35a69.7,69.7,0,0,1,12.87-9.72,63.47,63.47,0,0,1,15-6.39A59.73,59.73,0,0,1,98,5.24a63.47,63.47,0,0,1,15,6.39,70,70,0,0,1,12.87,9.72,80.49,80.49,0,0,1,10.37,12.1,90.42,90.42,0,0,1,7.89,13.67,96.38,96.38,0,0,1,5.51,14.66A112.68,112.68,0,0,1,154,92.57,113.27,113.27,0,0,1,149.77,123.38Z"/><circle class="cls-2" cx="118.71" cy="36.23" r="2.88"/><path class="cls-2" d="M108,39c7.92-14.8-5-21-8-21,4.39,7.27-2,17.5-12,21.47C97.48,37.46,103.1,37.92,108,39Z"/><path class="cls-3" d="M228.6,50.37q0-10-3.3-13.37t-12.36-3.41h-3.36V91.77h7.83V94H185V91.77h7.83V33.59h-3.36q-9,0-12.25,3.41t-3.3,13.37h-2.24v-19h59.19v19Z"/><path class="cls-3" d="M264.3,93.82a29.9,29.9,0,0,1-19.25-6.94q-8.61-6.94-8.61-19.69A28.4,28.4,0,0,1,239,55a22,22,0,0,1,6.72-8.5,32.06,32.06,0,0,1,9-4.76,30.68,30.68,0,0,1,9.85-1.62,31.11,31.11,0,0,1,9.9,1.62,31.9,31.9,0,0,1,9.07,4.76,22.6,22.6,0,0,1,6.77,8.5c1.71,3.58,2.57,6.36,2.57,12.08a27,27,0,0,1-2.57,12,22.59,22.59,0,0,1-6.83,8.39A31.11,31.11,0,0,1,264.3,93.82ZM256,85.93a8.62,8.62,0,0,0,8.5,5.65q6,0,8.62-5.71T275.71,67q0-13.15-2.57-18.91t-8.62-5.76q-6,0-8.5,5.76t-2.47,19Q253.55,80.29,256,85.93Z"/><path class="cls-3" d="M328.63,93.82h-28V91.58h5.6V43.65h-5.6V41.41H323V54.73a20.79,20.79,0,0,1,3.64-9,12.7,12.7,0,0,1,5.81-4.58,18.49,18.49,0,0,1,6.16-1.12,15.67,15.67,0,0,1,5.71,1.06,7.35,7.35,0,0,1,4.08,4.25,8.26,8.26,0,0,1,.11,6.38,7.79,7.79,0,0,1-4.31,4.53,7.17,7.17,0,0,1-5.65.34,7.49,7.49,0,0,1-3.69-2.74,12.57,12.57,0,0,1-1.57-3.3q-1.11-4.14-3-4.14-2.13,0-4.7,7.32a49.44,49.44,0,0,0-2.57,16V91.58h5.59Z"/><path class="cls-3" d="M382.68,93.82h-28V91.58h5.6V43.65h-5.6V41.41h22.38V54.73a20.91,20.91,0,0,1,3.64-9,12.67,12.67,0,0,1,5.82-4.58,18.39,18.39,0,0,1,6.15-1.12,15.63,15.63,0,0,1,5.71,1.06,7.29,7.29,0,0,1,4.08,4.25,8.21,8.21,0,0,1,.11,6.38,7.78,7.78,0,0,1-4.3,4.53,7.18,7.18,0,0,1-5.65.34,7.47,7.47,0,0,1-3.7-2.74,12.51,12.51,0,0,1-1.56-3.3q-1.12-4.14-3-4.14-2.13,0-4.7,7.32a49.18,49.18,0,0,0-2.58,16V91.58h5.6Z"/><path class="cls-3" d="M458.2,70.32H424.41Q425.54,90,439.74,90a25.31,25.31,0,0,0,8.67-1.79,14.29,14.29,0,0,0,7.11-5l1.56,1.12q-2.46,4.14-8.39,6.82a28.43,28.43,0,0,1-11.8,2.69,43.9,43.9,0,0,1-10.58-1.18,31.59,31.59,0,0,1-9.17-4,18.44,18.44,0,0,1-7-8.39,33,33,0,0,1-2.51-13.54q0-13.54,7.49-20.09a26.72,26.72,0,0,1,18.19-6.54,24.06,24.06,0,0,1,17.79,7.16Q458.19,54.43,458.2,70.32Zm-33.9-2.24h18.24a66.69,66.69,0,0,0-2.18-18q-2.19-7.73-7-7.72t-6.93,7.44a62.13,62.13,0,0,0-2.13,17.06Z"/><path class="cls-4" d="M285,100.27H278v69.32H285v2.67H250.4v-2.67h6.91V105.2l-27.37,67.14h-3.17l-30.69-69v66.25h11.06v2.67H185v-2.67h8.3V100.27h-8.44V97.61h30.83l21.56,50,20-50H285Z"/><path class="cls-5" d="M342.32,172.28v-8.47a19.86,19.86,0,0,1-8.23,6.07A29.7,29.7,0,0,1,322,172.34q-24.6,0-24.61-25.73V112.22h-6.91v-2.66h27.65v40q0,9.47,2.9,13.46t8.71,4q7.74,0,12.58-8V112.22H335.4v-2.66h27.65v60.05H370v2.67Z"/><path class="cls-4" d="M452.2,169.68h6.91v2.66H424.56v-2.66h6.91V132.35q0-9.46-2.91-13.46t-8.7-4q-7.89,0-12.58,8v46.79h6.91v2.66H379.63v-2.66h6.91V112.29h-6.91v-2.67h27.65V118A20.38,20.38,0,0,1,415.5,112a29.72,29.72,0,0,1,12.1-2.46q24.6,0,24.6,25.72Z"/><path class="cls-4" d="M496.43,169.68h6.91v2.66H468.78v-2.66h6.91V112.29h-5.52v-2.67h26.26Z"/><path class="cls-4" d="M511.63,140.48q0-15.72,9.54-23.86t24.26-8.13q14.72,0,21.9,7.13t5.12,14.73a9.35,9.35,0,0,1-4.63,6.07,10.61,10.61,0,0,1-7.67,1q-8.71-2-8.71-9.73a56.89,56.89,0,0,1,.48-6.07,35.22,35.22,0,0,0,.35-5.93,6.29,6.29,0,0,0-.83-2.93q-1.38-2.27-6.5-1.74-12.44,1.88-12.44,29.4t20.32,27.52a21.38,21.38,0,0,0,9.54-2.4,18.69,18.69,0,0,0,7.18-5.73l1.94,1.34a22.41,22.41,0,0,1-9.54,8.13,32.39,32.39,0,0,1-14.23,3.06Q511.63,172.34,511.63,140.48Z"/><path class="cls-4" d="M655.1,169.68H662v2.66H627.46v-2.66h6.91V132.35q0-9.46-2.9-13.46t-8.71-4q-7.87,0-12.58,8v46.79h6.91v2.66H582.54v-2.66h6.91v-84h-6.91V83h27.64V118a19.35,19.35,0,0,1,8.16-6,30.2,30.2,0,0,1,12.16-2.4q24.6,0,24.6,25.72Z"/><path class="cls-2" d="M497.67,82.35a11,11,0,0,1-3.52,8.26,11.88,11.88,0,0,1-8.57,3.4,12.09,12.09,0,0,1-8.64-3.4,10.92,10.92,0,0,1-3.59-8.26A11.13,11.13,0,0,1,476.94,74a12,12,0,0,1,8.64-3.47A11.78,11.78,0,0,1,494.15,74,11.25,11.25,0,0,1,497.67,82.35Z"/><path class="cls-2" d="M132.12,69.83V67.9h-5.34c-1.31,7-8.89,12.87-11.08,13.69a55,55,0,0,0-1.48-13.69h-1.37L98.87,104l-15-36.14H68.22v50.9h1.92V72.05l21.4,50.79h2.21L112.85,73.4v46.54H108v1.93h24.09v-1.93H127.3V69.83Z"/><path class="cls-2" d="M109.16,126.69a18.8,18.8,0,0,1,1,2.69,20.45,20.45,0,0,1,.71,6.38,26,26,0,0,1-4.29,12.87,30.64,30.64,0,0,1-10.44,9.85A28.42,28.42,0,0,1,82,162.34a41.84,41.84,0,0,1-14.69-2.59A39,39,0,0,1,63.16,158a31.63,31.63,0,0,1-3.52-3.22,20.6,20.6,0,0,1-3.26-4.45,9.53,9.53,0,0,1-1.18-5.08,8.38,8.38,0,0,1,2-4.67,7,7,0,0,1,3.5-1.93,5.78,5.78,0,0,1,3.9.63,6.1,6.1,0,0,1,2.72,3,6,6,0,0,1,.43,2,2.27,2.27,0,1,0-1.07,3.47A2.3,2.3,0,0,0,68,146.62l0,0a6.61,6.61,0,0,0,.34-4.76,7.11,7.11,0,0,0-7.92-4.8,8.43,8.43,0,0,0-4.38,2.33l0,0,0,0a11.09,11.09,0,0,0-1.62,2.61,8.88,8.88,0,0,0-.75,3A10.53,10.53,0,0,0,55.17,151a19.56,19.56,0,0,0,3.71,4.56l.19.16a47.52,47.52,0,0,1-4.67-3.39,49.45,49.45,0,0,1-9.88-11.09,58.76,58.76,0,0,1-6.44-13.3,70.33,70.33,0,0,1-2-7.12c-.53-2.4-.91-4.84-1.22-7.28a80.8,80.8,0,0,1-.38-14.75,55.81,55.81,0,0,1,9.18-27.1l-3.26.42c-2.66,2.56-11.83,18.06-9,41.89a65.54,65.54,0,0,0,3.93,15,56.55,56.55,0,0,0,18.32,24.39A51.14,51.14,0,0,0,67,160.57a47.8,47.8,0,0,0,15,2.79,42.14,42.14,0,0,0,15.2-2.59,53.3,53.3,0,0,0,14.07-7.66,56.32,56.32,0,0,0,12-12.41,59.6,59.6,0,0,0,4.83-8.17c.91-1.86,1.73-3.81,2.51-5.84Z"/><path class="cls-2" d="M122.38,49.56c-9.47-8.64-31.18-11.15-56.74.42A56.61,56.61,0,0,0,52.39,57.9h4.85c1-.71,1.95-1.38,3-2a56.65,56.65,0,0,1,6.47-3.59,72.16,72.16,0,0,1,25.91-6.46c12.23.25,25.85,5.9,25.65,29.11C121.76,73.63,132.12,58.56,122.38,49.56Z"/><path class="cls-2" d="M50.15,65.14v53.5H42.94v2.06H72.78v-2.06h-7.2V65.14H82.41l-.86-2.06H30.7V78.51C33.67,62.48,50.15,65.14,50.15,65.14Z"/></g></g></svg>