<svg xmlns="http://www.w3.org/2000/svg" viewBox="0 0 540.05 113.56"><defs><style>.cls-1{fill:#585a5e;}.cls-2{fill:#009041;}</style></defs><g id="Capa_2" data-name="Capa 2"><g id="Capa_1-2" data-name="Capa 1"><polygon class="cls-1" points="0 0.83 10.88 0.83 45.61 66.48 80.34 0.83 91.22 0.83 51.55 75.56 39.67 75.56 0 0.83"/><polygon class="cls-1" points="97.82 0.83 168.16 0.83 168.16 9.09 107.51 9.09 107.51 32.93 165.79 32.93 165.79 41.19 107.51 41.19 107.51 67.3 168.56 67.3 168.56 75.56 97.82 75.56 97.82 0.83"/><polygon class="cls-1" points="177.74 0.83 192.18 0.83 257.78 66.48 257.78 0.83 267.47 0.83 267.47 75.56 253.03 75.56 187.43 9.91 187.43 75.56 177.74 75.56 177.74 0.83"/><polygon class="cls-1" points="309.29 9.09 273.08 9.09 273.08 0.83 355.2 0.83 355.2 9.09 318.98 9.09 318.98 75.56 309.29 75.56 309.29 9.09"/><path class="cls-1" d="M361.4.83h9.7V56.67c0,7.22,2.37,11.45,15.53,11.45h33.64c13.15,0,15.53-4.23,15.53-11.45V.83h9.7V56.77c0,15.17-7.32,19.61-25.52,19.61H386.92c-18.21,0-25.52-4.44-25.52-19.61Z"/><path class="cls-1" d="M457.73,52h9.11v5.26c0,7.33,3.75,10.84,15.83,10.84h30.08c14,0,18.2-3.09,18.2-13.83,0-9.39-3.56-11.76-15.63-11.76H496.9c-29.57,0-39.27-1.86-39.27-21.68,0-17,9.7-20.85,29.68-20.85H508.2c24,0,30.06,6.41,30.06,19.72V22.3h-9.09c-.2-11.87-1.4-14-26.82-14H492.06c-18.69,0-25.32,1-25.32,13.32,0,8.87,2.67,11.87,17.8,11.87h28.7c18.89,0,26.81,5.67,26.81,18.37v4.85c0,18.37-14.45,19.71-28.79,19.71H484.35c-14.14,0-26.62-2.58-26.62-18.88Z"/><path class="cls-2" d="M127.81,95.63h2.31l6.39,11.06,1.9,3.65h.11c-.11-1.77-.3-3.76-.3-5.61v-9.1h2.12v17.61H138l-6.36-11.09-1.91-3.62h-.11c.11,1.77.27,3.65.27,5.5v9.21h-2.12Z"/><path class="cls-2" d="M144,104.35c0-5.63,3.11-9,7.54-9s7.51,3.43,7.51,9-3.11,9.21-7.51,9.21S144,110,144,104.35Zm12.74,0c0-4.37-2.06-7.08-5.2-7.08s-5.24,2.71-5.24,7.08,2.07,7.25,5.24,7.25S156.77,108.75,156.77,104.35Z"/><path class="cls-2" d="M162.82,109.4a6.85,6.85,0,0,0,4.86,2.2c2.3,0,3.67-1.15,3.67-2.87s-1.29-2.36-2.95-3.12l-2.52-1.1c-1.64-.69-3.57-2-3.57-4.53s2.36-4.67,5.55-4.67A7.17,7.17,0,0,1,173,97.48l-1.18,1.45a5.65,5.65,0,0,0-4-1.66c-2,0-3.3,1-3.3,2.57s1.56,2.34,2.93,2.93l2.52,1.07c2,.89,3.62,2.1,3.62,4.7,0,2.79-2.3,5-6,5a8.44,8.44,0,0,1-6.14-2.61Z"/><path class="cls-2" d="M182.36,95.63h2.26v17.61h-2.26Z"/><path class="cls-2" d="M189.29,95.63h2.65l3.41,9.45,1.26,3.59h.11l1.24-3.59,3.38-9.45H204v17.61h-2.12v-9.69c0-1.56.18-3.65.29-5.21H202l-1.39,3.92-3.38,9.21H196l-3.38-9.21-1.4-3.92h-.1c.1,1.56.26,3.65.26,5.21v9.69h-2.06Z"/><path class="cls-2" d="M208.67,95.63h5.42c3.89,0,6.5,1.32,6.5,5.18,0,3.7-2.66,5.45-6.5,5.45h-3.16v7h-2.26Zm5.13,8.8c3.08,0,4.56-1.12,4.56-3.62s-1.53-3.38-4.56-3.38h-2.87v7Z"/><path class="cls-2" d="M223,104.35c0-5.63,3.11-9,7.54-9s7.52,3.43,7.52,9-3.12,9.21-7.52,9.21S223,110,223,104.35Zm12.75,0c0-4.37-2.07-7.08-5.21-7.08s-5.23,2.71-5.23,7.08,2.06,7.25,5.23,7.25S235.73,108.75,235.73,104.35Z"/><path class="cls-2" d="M251.35,113.24l-4.24-7.44H244v7.44h-2.26V95.63h5.53c3.57,0,6.15,1.29,6.15,4.94a4.83,4.83,0,0,1-4,5l4.48,7.68ZM244,104h3c2.74,0,4.24-1.13,4.24-3.41s-1.5-3.14-4.24-3.14h-3Z"/><path class="cls-2" d="M260.29,97.51H255V95.63h12.91v1.88h-5.34v15.73h-2.23Z"/><path class="cls-2" d="M277.85,107.87h-6.41l-1.7,5.37h-2.28l6-17.61h2.52l6,17.61h-2.36Zm-.56-1.8-.84-2.68c-.61-2-1.18-3.89-1.74-5.94h-.11c-.56,2-1.13,4-1.74,5.94l-.86,2.68Z"/><path class="cls-2" d="M289.66,95.63h10.15v1.88h-7.89V103h6.65v1.9h-6.65v6.39h8.16v1.91H289.66Z"/><path class="cls-2" d="M303.68,95.63h2.25v15.7h7.68v1.91h-9.93Z"/><path class="cls-2" d="M322,95.63h10.17v1.88h-7.91v6H331v1.88h-6.71v7.89H322Z"/><path class="cls-2" d="M335.06,95.63h2.25V106c0,4.24,1.8,5.58,4.08,5.58s4.19-1.34,4.19-5.58V95.63h2.15V106c0,5.67-2.74,7.6-6.34,7.6s-6.33-1.93-6.33-7.6Z"/><path class="cls-2" d="M356,97.51h-5.34V95.63h12.91v1.88h-5.34v15.73H356Z"/><path class="cls-2" d="M366.5,95.63h2.25V106c0,4.24,1.8,5.58,4.08,5.58S377,110.26,377,106V95.63h2.14V106c0,5.67-2.73,7.6-6.33,7.6s-6.33-1.93-6.33-7.6Z"/><path class="cls-2" d="M393.42,113.24l-4.24-7.44H386v7.44h-2.25V95.63h5.53c3.57,0,6.14,1.29,6.14,4.94a4.82,4.82,0,0,1-3.94,5l4.48,7.68ZM386,104H389c2.74,0,4.24-1.13,4.24-3.41s-1.5-3.14-4.24-3.14H386Z"/><path class="cls-2" d="M398.2,104.35c0-5.63,3.11-9,7.54-9s7.52,3.43,7.52,9-3.12,9.21-7.52,9.21S398.2,110,398.2,104.35Zm12.75,0c0-4.37-2.07-7.08-5.21-7.08s-5.23,2.71-5.23,7.08,2.07,7.25,5.23,7.25S411,108.75,411,104.35Z"/></g></g></svg>